<?xml version="1.0" standalone="no"?>
<!DOCTYPE svg PUBLIC "-//W3C//DTD SVG 20010904//EN"
 "http://www.w3.org/TR/2001/REC-SVG-20010904/DTD/svg10.dtd">
<svg version="1.0" xmlns="http://www.w3.org/2000/svg"
 width="1024.000000pt" height="1024.000000pt" viewBox="0 0 1024.000000 1024.000000"
 preserveAspectRatio="xMidYMid meet">
<metadata>
Created by potrace 1.14, written by Peter Selinger 2001-2017
</metadata>
<g transform="translate(0.000000,1024.000000) scale(0.100000,-0.100000)"
fill="#000000" stroke="none">
<path d="M1460 9529 c0 -5 -5 -7 -10 -4 -6 3 -17 -1 -26 -9 -9 -9 -20 -14 -25
-11 -5 4 -9 2 -9 -3 0 -5 -13 -15 -30 -22 -16 -7 -30 -16 -30 -20 0 -4 -11
-11 -25 -14 -14 -4 -25 -11 -25 -16 0 -6 -7 -10 -15 -10 -8 0 -15 -5 -15 -12
0 -6 -3 -9 -6 -6 -5 6 -31 -14 -91 -69 -13 -13 -28 -23 -33 -23 -5 0 -12 -9
-15 -21 -4 -11 -9 -18 -12 -15 -7 7 -123 -115 -123 -130 0 -3 -6 -11 -12 -18
-33 -34 -58 -67 -58 -76 0 -6 -4 -10 -8 -10 -4 0 -13 -12 -20 -27 -13 -32 -51
-96 -61 -103 -3 -3 -7 -9 -8 -15 -1 -5 -20 -50 -41 -100 -35 -79 -88 -228 -96
-266 -2 -8 -6 -21 -9 -29 -7 -18 -35 -130 -43 -173 -3 -18 -7 -36 -8 -42 -2
-5 -6 -30 -10 -55 -11 -66 -14 -85 -16 -85 -2 0 -5 -22 -13 -95 -4 -30 -9 -77
-13 -105 -3 -27 -8 -72 -10 -100 -3 -27 -7 -340 -9 -695 -5 -752 -9 -863 -39
-990 -4 -14 -8 -37 -11 -53 -13 -68 -77 -224 -100 -239 -6 -5 -6 -8 0 -8 6 0
2 -5 -7 -11 -10 -5 -18 -17 -18 -26 0 -9 -3 -14 -6 -10 -4 3 -20 -9 -37 -28
-16 -19 -34 -32 -39 -29 -4 3 -8 1 -8 -4 0 -11 -80 -38 -99 -34 -7 2 -11 0 -8
-5 3 -5 -3 -9 -14 -9 -10 0 -19 5 -19 11 0 5 -6 3 -13 -6 -9 -12 -12 -135 -12
-512 0 -473 1 -497 19 -514 10 -10 16 -13 12 -6 -4 8 3 11 24 11 16 -1 30 -5
30 -10 0 -4 9 -8 20 -8 27 0 80 -27 80 -41 0 -6 4 -8 8 -5 5 3 20 -7 33 -22
36 -42 90 -122 82 -122 -5 0 -2 -4 5 -9 7 -4 15 -14 16 -22 3 -13 6 -23 23
-66 3 -10 7 -21 8 -25 2 -5 3 -9 5 -10 1 -2 3 -12 5 -23 2 -11 8 -38 14 -60 5
-22 13 -60 17 -85 3 -25 8 -56 10 -70 11 -67 15 -289 18 -875 2 -352 6 -656
10 -675 3 -19 8 -66 12 -105 3 -38 8 -86 11 -105 2 -19 4 -45 4 -57 -1 -13 3
-23 7 -23 4 0 8 -17 8 -38 2 -33 10 -87 14 -87 2 0 7 -24 15 -74 3 -23 10 -54
15 -67 5 -13 8 -24 5 -24 -2 0 2 -18 10 -40 8 -22 12 -40 9 -40 -2 0 2 -13 11
-30 8 -16 14 -33 14 -37 -1 -4 1 -17 5 -28 24 -63 28 -75 28 -82 0 -4 4 -14
10 -20 6 -7 7 -13 4 -13 -4 0 -1 -10 6 -22 7 -13 12 -25 13 -28 1 -16 110
-230 117 -230 4 0 8 -5 8 -11 0 -9 54 -93 70 -109 3 -3 17 -21 31 -40 15 -19
62 -70 105 -113 97 -97 109 -107 118 -107 4 0 18 -11 32 -25 14 -14 29 -25 34
-25 5 0 15 -6 22 -13 19 -16 48 -35 76 -47 12 -5 22 -14 22 -20 0 -6 5 -8 12
-4 6 4 17 -1 25 -11 7 -11 13 -16 13 -12 0 4 11 0 24 -8 16 -11 26 -13 31 -6
3 6 4 11 0 11 -3 0 -1 8 4 17 5 10 12 34 15 53 3 19 8 46 11 60 3 14 8 36 11
49 3 12 11 51 19 85 8 33 16 72 19 86 3 14 10 50 15 80 6 30 14 66 17 80 3 14
7 34 9 45 4 23 9 42 31 143 l16 72 -23 19 c-120 95 -201 242 -250 451 -7 30
-13 64 -14 75 -1 11 -5 27 -8 35 -3 8 -8 38 -12 65 -14 116 -18 162 -19 193 0
17 -3 32 -6 32 -8 0 -10 110 -14 830 -2 371 -7 707 -11 745 -11 115 -21 189
-30 230 -3 17 -8 41 -9 55 -2 14 -6 35 -10 47 -4 12 -8 30 -10 40 -2 10 -9 38
-16 63 -7 25 -12 46 -11 48 1 1 -6 16 -14 32 -9 17 -13 30 -11 30 5 0 -30 90
-66 170 -29 64 -110 200 -120 200 -4 0 -8 6 -8 13 0 7 -36 51 -80 98 -44 46
-80 89 -80 95 0 6 15 22 34 35 19 13 33 27 30 30 -2 4 5 10 16 14 11 3 20 9
20 13 0 4 11 21 25 37 13 17 28 35 33 40 5 6 17 24 28 40 10 17 21 32 24 35 3
3 18 30 34 60 16 30 34 58 39 61 5 3 8 9 7 13 -1 4 7 29 19 56 12 28 20 51 19
53 -2 2 3 11 11 20 7 10 11 17 8 17 -3 0 1 17 9 37 9 20 18 46 21 57 8 38 11
51 13 51 1 0 3 7 5 15 2 8 7 26 10 40 4 14 8 34 9 45 1 11 5 29 9 40 6 19 15
72 22 125 2 14 6 43 9 65 15 117 19 259 22 880 2 374 6 700 8 725 2 25 7 81
11 125 4 44 7 88 7 97 0 10 4 20 9 23 5 4 7 10 5 14 -5 7 18 176 24 176 1 0 3
11 5 25 6 32 13 64 15 68 2 1 3 5 4 10 25 93 64 185 109 256 30 48 117 143
117 129 0 -4 7 3 16 15 8 12 13 30 10 40 -3 9 -8 33 -11 52 -3 19 -10 51 -15
70 -5 19 -11 46 -14 60 -2 14 -5 25 -6 25 -1 0 -3 11 -5 25 -4 28 -11 62 -20
100 -4 14 -8 34 -9 45 -2 11 -5 21 -6 23 -1 1 -4 11 -5 22 -1 11 -3 21 -5 23
-1 1 -3 11 -4 22 -2 11 -7 36 -11 55 -5 19 -10 43 -11 53 -1 9 -3 20 -4 25 -2
4 -4 12 -5 17 -2 6 -4 12 -5 15 -1 3 -3 19 -5 36 -6 44 -23 84 -35 84 -5 0
-10 -5 -10 -11z"/>
<path d="M8753 9527 c-1 -20 -13 -89 -17 -96 -3 -3 -7 -26 -11 -51 -4 -25 -8
-48 -11 -51 -2 -4 -7 -24 -10 -45 -8 -48 -12 -69 -14 -69 -1 0 -3 -7 -5 -15
-1 -8 -8 -42 -15 -75 -7 -33 -13 -68 -12 -77 0 -10 -3 -18 -8 -18 -4 0 -7 -11
-5 -25 1 -14 -1 -25 -4 -25 -4 0 -8 -10 -9 -22 -1 -26 -7 -54 -21 -113 -15
-61 -21 -98 -15 -92 16 16 177 -176 177 -210 0 -7 4 -13 8 -13 3 0 9 -8 12
-17 3 -10 16 -49 31 -87 22 -60 34 -104 51 -194 2 -12 6 -26 9 -30 3 -5 7 -33
10 -63 3 -30 8 -65 11 -78 2 -13 7 -53 10 -90 3 -36 7 -77 10 -91 3 -14 7
-109 9 -212 3 -104 7 -192 11 -197 3 -5 1 -12 -5 -16 -6 -4 -7 -11 -4 -17 3
-5 6 -42 5 -81 -1 -40 -1 -79 -1 -87 0 -8 0 -62 0 -120 0 -58 0 -112 0 -120 0
-8 0 -62 0 -120 0 -58 0 -112 0 -120 0 -8 0 -62 0 -120 0 -58 0 -112 -1 -120
-1 -28 11 -265 16 -300 9 -73 22 -164 30 -202 3 -16 7 -38 9 -50 2 -13 12 -52
21 -88 9 -36 19 -72 20 -80 2 -8 4 -15 5 -15 1 0 3 -7 5 -15 18 -91 163 -384
197 -398 4 -2 8 -8 8 -13 0 -19 153 -179 171 -179 6 0 -28 -39 -75 -86 -47
-48 -86 -90 -86 -94 0 -6 -38 -60 -70 -97 -6 -7 -8 -13 -4 -13 4 0 0 -8 -8
-17 -14 -16 -76 -141 -84 -168 -2 -5 -16 -47 -32 -92 -16 -45 -27 -85 -24 -88
3 -3 1 -5 -4 -5 -5 0 -10 -10 -11 -23 -3 -27 -8 -47 -17 -69 -4 -9 -9 -31 -11
-50 -2 -18 -4 -33 -5 -33 -2 0 -9 -34 -15 -80 -3 -22 -8 -56 -11 -75 -12 -80
-17 -162 -18 -277 -1 -68 -4 -123 -8 -123 -4 0 -4 -11 1 -23 5 -13 5 -30 1
-37 -5 -8 -6 -18 -3 -23 4 -7 5 -49 3 -227 0 -8 0 -62 0 -120 0 -58 0 -112 0
-120 -1 -42 0 -238 0 -255 1 -11 1 -24 1 -30 1 -5 -2 -100 -6 -210 -6 -205 -8
-246 -20 -350 -12 -104 -13 -109 -20 -155 -4 -25 -8 -51 -8 -57 0 -7 -3 -13
-6 -13 -3 0 -7 -10 -7 -22 -1 -25 -11 -91 -15 -95 -1 -2 -2 -7 -3 -12 0 -5 -4
-13 -8 -17 -5 -4 -8 -15 -8 -25 0 -20 -58 -171 -68 -179 -4 -3 -15 -21 -25
-40 -21 -43 -105 -136 -118 -132 -5 1 -9 -3 -9 -9 0 -6 -7 -17 -15 -26 -8 -8
-13 -18 -10 -23 3 -5 10 -30 15 -57 5 -26 12 -59 15 -73 6 -25 12 -57 19 -97
2 -11 7 -31 11 -43 4 -12 9 -32 10 -43 4 -22 14 -77 20 -107 2 -8 4 -16 5 -17
2 -2 3 -11 4 -20 1 -10 5 -31 9 -48 7 -30 14 -60 23 -104 3 -13 11 -50 19 -83
15 -66 15 -66 15 -74 0 -4 7 -1 15 6 8 7 15 9 15 4 0 -5 7 0 16 11 8 11 16 18
17 16 4 -8 47 10 47 20 0 5 7 9 15 9 8 0 23 8 33 17 10 10 25 19 32 21 8 2 19
11 27 20 7 9 13 13 13 9 0 -5 6 -2 13 5 8 7 29 24 48 38 72 53 229 219 267
283 9 15 20 27 24 27 4 0 8 5 8 11 0 6 14 30 31 55 29 43 103 194 129 264 7
19 18 49 26 65 7 17 15 43 18 59 3 15 9 33 15 39 5 7 9 14 8 17 -1 7 33 152
41 170 3 8 7 22 8 30 1 8 5 25 7 36 3 12 8 39 11 60 4 22 10 62 16 89 12 68
26 169 35 270 13 135 18 350 20 900 3 586 5 670 20 755 15 87 18 101 31 153 8
33 10 40 18 59 4 9 8 22 10 30 6 38 77 159 117 198 39 38 103 74 120 67 3 -1
12 3 20 9 8 6 29 11 46 10 18 0 35 4 37 10 2 6 4 46 3 88 -1 42 2 76 6 76 5 0
5 5 1 11 -9 16 -11 149 -1 149 5 0 5 5 1 11 -9 16 -11 149 -1 149 5 0 5 5 1
11 -9 16 -11 149 -1 149 5 0 5 5 1 11 -9 16 -11 149 -1 149 5 0 5 5 1 11 -9
14 -11 149 -2 149 4 0 2 14 -4 30 -8 25 -13 28 -24 19 -11 -9 -14 -8 -14 2 0
12 -2 12 -9 0 -6 -9 -11 -10 -15 -2 -4 6 -12 9 -17 6 -5 -4 -9 -1 -9 5 0 6 -4
8 -10 5 -13 -8 -78 26 -116 61 -30 27 -104 127 -104 140 0 3 -6 20 -14 37 -15
34 -36 96 -41 125 -2 9 -4 17 -5 17 -2 0 -6 21 -14 69 -4 21 -9 48 -11 60 -14
58 -17 202 -20 771 -2 559 -7 758 -21 895 -10 105 -14 136 -18 160 -3 14 -7
45 -10 70 -8 60 -15 100 -23 130 -6 26 -8 34 -18 90 -3 19 -11 53 -18 75 -6
22 -12 45 -12 50 -1 6 -6 20 -13 31 -6 12 -9 24 -5 27 3 4 0 13 -7 22 -7 8
-10 15 -7 15 10 0 -57 177 -106 280 -38 79 -127 230 -136 230 -4 0 -15 16 -25
35 -11 19 -23 35 -27 35 -4 0 -11 9 -14 20 -3 11 -13 20 -21 20 -8 0 -14 5
-14 12 0 6 -20 29 -44 52 -91 85 -136 125 -136 118 0 -4 -4 -2 -8 3 -15 21
-89 74 -96 68 -3 -3 -6 -2 -6 4 0 5 -18 18 -40 28 -22 10 -40 21 -40 25 0 8
-39 23 -52 21 -5 -1 -8 3 -8 7 0 13 -37 12 -37 -1z"/>
<path d="M4502 8663 c-6 -2 -10 -9 -7 -13 3 -5 -4 -7 -15 -5 -11 2 -20 -2 -20
-8 0 -7 -4 -6 -11 3 -8 12 -12 12 -16 2 -4 -10 -8 -10 -19 -1 -11 9 -15 8 -20
-5 -5 -13 -9 -14 -20 -5 -12 10 -13 8 -7 -6 5 -14 3 -17 -9 -13 -8 4 -21 2
-29 -2 -8 -5 -19 -4 -28 3 -12 9 -13 9 -7 0 4 -8 2 -13 -4 -13 -6 0 -8 -5 -4
-12 5 -8 2 -9 -11 -4 -11 4 -25 0 -37 -11 -18 -16 -19 -16 -13 3 5 15 3 14 -7
-4 -10 -16 -17 -19 -25 -11 -8 8 -13 7 -18 -2 -5 -8 -4 -10 3 -5 7 4 12 5 12
2 0 -3 -10 -10 -21 -17 -17 -9 -20 -8 -14 3 3 7 0 6 -7 -3 -7 -9 -31 -26 -52
-37 -22 -12 -43 -27 -47 -34 -5 -7 -12 -13 -16 -13 -29 -2 -51 -18 -46 -32 4
-11 3 -14 -6 -9 -7 5 -28 -9 -53 -36 -23 -23 -33 -32 -22 -18 l19 25 -27 -24
c-15 -13 -25 -29 -22 -35 3 -6 0 -4 -8 4 -7 8 -23 14 -35 12 -13 -2 -28 6 -38
20 -15 20 -16 20 -11 3 6 -16 5 -18 -5 -7 -7 6 -23 12 -36 12 -13 0 -23 3 -23
8 0 4 -23 8 -52 9 -29 1 -55 7 -59 15 -6 9 -9 9 -9 1 0 -14 -40 -13 -40 2 0 5
-4 4 -9 -4 -6 -9 -10 -10 -16 -2 -5 9 -10 9 -20 1 -9 -8 -15 -8 -20 0 -3 6
-12 7 -18 3 -7 -4 -21 -8 -32 -8 -11 0 -26 -5 -34 -9 -10 -6 -12 -5 -7 2 4 7
2 12 -3 12 -6 0 -11 -4 -11 -10 0 -5 -7 -7 -15 -4 -8 4 -12 10 -9 15 9 15 -3
10 -17 -8 -12 -15 -12 -16 1 -8 12 6 13 6 2 -6 -8 -9 -15 -10 -20 -4 -9 12
-38 13 -49 1 -4 -5 -3 -6 4 -2 6 3 14 3 17 -2 2 -4 -7 -9 -20 -10 -18 -1 -23
2 -18 11 5 8 2 7 -9 -2 -10 -8 -20 -11 -24 -7 -3 3 -15 -2 -26 -11 -10 -10
-22 -18 -26 -18 -3 0 -5 -4 -3 -8 1 -4 -7 -3 -19 4 -19 10 -21 9 -16 -4 4 -11
2 -14 -9 -10 -7 3 -14 0 -14 -7 0 -9 -4 -9 -17 1 -9 8 -14 9 -11 4 4 -6 -7
-18 -23 -28 -18 -10 -27 -12 -24 -4 4 6 -3 1 -15 -13 -12 -14 -19 -18 -15 -10
5 12 4 12 -7 -1 -7 -9 -19 -14 -25 -12 -7 3 -13 -3 -13 -12 0 -11 -5 -15 -16
-11 -8 3 -12 2 -9 -4 3 -6 -1 -10 -10 -10 -10 0 -13 -5 -9 -12 5 -8 2 -9 -9
-5 -16 6 -22 -3 -18 -26 1 -5 -3 -6 -8 -3 -11 7 -77 -54 -73 -67 1 -5 -2 -6
-8 -2 -5 3 -10 1 -10 -5 0 -6 -3 -9 -7 -7 -5 3 -19 -11 -33 -30 -14 -20 -36
-47 -50 -61 -14 -14 -18 -22 -10 -18 9 5 8 2 -2 -7 -10 -8 -15 -17 -11 -20 3
-4 -1 -7 -11 -7 -9 0 -15 -4 -11 -10 3 -5 -2 -18 -12 -30 -10 -11 -18 -25 -18
-30 0 -5 -9 -16 -20 -25 l-20 -17 20 6 c19 6 19 5 1 -8 -10 -8 -15 -19 -11
-25 3 -6 -1 -11 -10 -11 -9 0 -14 -4 -10 -9 3 -5 1 -12 -4 -16 -5 -3 -8 -14
-6 -25 2 -11 -1 -23 -7 -26 -7 -5 -8 -2 -3 7 5 8 4 11 -1 6 -9 -9 -11 -14 -13
-48 0 -11 -5 -18 -9 -15 -4 2 -9 -5 -9 -17 -2 -17 0 -19 7 -7 7 11 10 11 10 2
0 -7 -7 -15 -16 -19 -13 -5 -13 -7 -2 -14 9 -6 10 -9 1 -9 -7 0 -10 -7 -6 -17
4 -10 2 -14 -4 -10 -12 8 -12 -11 0 -30 5 -9 3 -11 -6 -7 -11 4 -13 -1 -9 -21
3 -17 -1 -30 -9 -36 -8 -5 -9 -9 -3 -9 6 0 11 -7 11 -15 0 -10 -6 -14 -16 -10
-13 5 -13 4 1 -12 10 -11 13 -25 8 -38 -4 -11 -5 -32 -4 -48 3 -20 0 -26 -9
-22 -6 4 -3 -1 7 -9 20 -16 20 -16 0 -16 -18 -1 -18 -1 -1 -11 10 -6 14 -15
10 -22 -11 -18 -11 -47 0 -47 5 0 4 -7 -3 -15 -9 -11 -9 -15 -1 -15 7 0 9 -4
6 -10 -3 -5 -1 -10 6 -10 7 0 4 -7 -7 -16 -10 -8 -13 -13 -6 -9 6 3 12 3 13
-2 1 -4 3 -19 5 -33 2 -14 5 -35 7 -47 2 -12 12 -32 23 -45 10 -12 12 -17 4
-11 -13 10 -16 8 -16 -7 0 -10 3 -18 6 -17 3 1 6 -2 7 -7 1 -5 7 -13 15 -17
10 -7 10 -9 -2 -9 -9 0 -11 -3 -5 -8 17 -12 41 -47 28 -38 -7 4 -13 2 -13 -3
0 -6 6 -11 14 -11 9 0 13 -7 11 -20 -2 -11 1 -23 7 -26 7 -5 8 -2 3 6 -5 9 -4
11 4 6 6 -4 9 -11 6 -16 -6 -10 36 -90 48 -90 5 0 7 -7 4 -14 -4 -10 -1 -13 9
-9 9 3 14 0 12 -8 -2 -8 3 -13 11 -11 11 2 12 0 3 -11 -9 -10 -7 -16 8 -27 11
-8 20 -21 20 -30 0 -13 1 -13 10 0 8 12 10 11 10 -7 0 -13 6 -23 13 -23 9 0 8
-3 -2 -9 -11 -7 -11 -9 0 -14 12 -5 12 -6 0 -6 -11 -1 -11 -4 0 -18 10 -11 10
-14 2 -9 -9 5 -13 1 -13 -13 0 -11 -5 -23 -11 -26 -7 -5 -2 -16 13 -32 16 -17
18 -22 6 -18 -15 6 -16 2 -10 -22 5 -15 7 -41 7 -58 -1 -16 2 -38 7 -48 8 -15
5 -20 -12 -24 -15 -4 -18 -8 -9 -13 6 -4 12 -28 13 -53 1 -39 -1 -44 -14 -34
-12 10 -13 9 -4 -3 6 -8 10 -23 9 -33 -2 -9 0 -15 4 -12 5 2 6 -7 3 -20 -2
-14 -9 -28 -14 -31 -5 -3 1 -17 14 -31 16 -17 18 -22 6 -18 -15 6 -16 3 -8
-24 7 -25 5 -33 -8 -41 -16 -9 -16 -9 0 -10 9 0 20 -4 23 -10 4 -6 -1 -7 -11
-3 -14 5 -15 3 -5 -15 9 -17 9 -22 -1 -22 -9 0 -10 -3 -2 -8 6 -4 10 -18 9
-32 -1 -14 2 -33 7 -43 8 -15 5 -20 -12 -24 -14 -4 -18 -8 -10 -13 15 -9 20
-60 6 -60 -6 0 -4 -5 4 -10 12 -8 12 -10 -5 -11 -17 -1 -16 -2 5 -9 14 -4 19
-8 13 -9 -7 -1 -13 -9 -13 -19 0 -10 6 -24 13 -31 10 -10 8 -11 -7 -5 -14 5
-17 4 -11 -5 12 -20 7 -93 -7 -102 -10 -7 -9 -9 4 -9 9 0 20 -4 23 -10 4 -6
-1 -7 -12 -3 -16 6 -16 5 1 -16 16 -18 17 -21 3 -16 -14 6 -15 2 -9 -22 5 -15
7 -41 7 -58 -1 -16 2 -38 7 -48 8 -15 5 -20 -12 -24 -15 -4 -18 -8 -9 -13 6
-4 12 -28 13 -53 1 -39 -1 -44 -14 -34 -12 10 -13 9 -4 -3 6 -8 10 -23 9 -33
-2 -9 0 -15 4 -12 5 2 6 -7 3 -20 -2 -14 -9 -28 -14 -31 -5 -3 1 -17 14 -31
16 -17 18 -22 6 -18 -15 6 -16 3 -8 -24 7 -25 5 -33 -8 -41 -15 -8 -15 -10 3
-10 11 -1 14 -4 8 -7 -9 -3 -10 -10 -3 -24 8 -14 7 -19 -2 -19 -9 0 -10 -3 -2
-8 6 -4 10 -18 9 -32 -1 -14 2 -33 7 -43 8 -15 5 -20 -12 -24 -14 -4 -18 -8
-10 -13 15 -9 20 -60 6 -60 -6 0 -3 -5 6 -11 15 -8 16 -13 5 -29 -9 -16 -9
-24 0 -40 11 -16 10 -18 -4 -13 -11 5 -14 3 -8 -6 12 -20 7 -93 -7 -102 -10
-7 -9 -9 4 -9 9 0 20 -4 23 -10 4 -6 -1 -7 -12 -3 -16 6 -16 5 1 -16 15 -16
16 -20 4 -16 -13 5 -14 -1 -8 -42 4 -26 6 -51 3 -55 -2 -4 1 -17 7 -29 10 -17
8 -21 -10 -26 -15 -4 -18 -8 -9 -13 6 -4 12 -28 13 -53 1 -39 -1 -44 -14 -34
-12 10 -13 9 -4 -3 6 -8 10 -23 9 -33 -2 -9 0 -15 4 -12 5 2 6 -7 3 -20 -2
-14 -9 -28 -14 -31 -5 -3 1 -17 14 -31 17 -18 18 -23 5 -17 -12 4 -16 2 -12
-7 3 -8 7 -29 9 -47 3 -28 1 -31 -12 -20 -12 11 -12 7 2 -19 12 -25 13 -33 4
-33 -9 0 -10 -3 -2 -8 6 -4 10 -18 9 -32 -1 -14 2 -33 7 -43 8 -15 5 -20 -12
-24 -14 -4 -18 -8 -10 -13 15 -9 20 -60 6 -60 -6 0 -3 -5 6 -11 15 -8 16 -13
5 -29 -9 -16 -9 -24 0 -40 11 -16 10 -18 -4 -13 -11 5 -14 3 -8 -6 12 -20 7
-93 -7 -102 -10 -7 -9 -9 4 -9 9 0 20 -4 23 -10 4 -6 -1 -7 -12 -3 -16 6 -16
5 1 -16 15 -16 16 -20 4 -16 -13 5 -14 -1 -8 -42 4 -26 6 -51 3 -55 -2 -4 1
-17 7 -29 10 -17 8 -21 -10 -26 -15 -4 -18 -8 -9 -13 6 -4 12 -28 13 -53 1
-39 -1 -44 -14 -34 -12 10 -13 9 -4 -3 6 -8 10 -23 9 -33 -2 -9 0 -15 4 -12 5
2 6 -7 3 -20 -2 -14 -9 -28 -14 -31 -5 -3 1 -17 14 -31 16 -17 18 -22 6 -18
-15 6 -16 3 -8 -24 7 -25 5 -33 -8 -41 -15 -8 -15 -10 3 -10 11 -1 14 -4 8 -7
-9 -3 -10 -10 -3 -24 8 -14 7 -19 -2 -19 -9 0 -10 -3 -2 -8 6 -4 10 -18 9 -32
-1 -14 2 -33 7 -43 8 -15 5 -20 -12 -24 -14 -4 -18 -8 -10 -13 15 -9 20 -60 6
-60 -6 0 -4 -5 4 -10 12 -8 12 -10 -5 -11 -17 -1 -16 -2 5 -9 14 -4 19 -8 12
-9 -15 -1 -13 -59 2 -80 9 -12 8 -13 -3 -6 -11 6 -13 3 -9 -13 4 -13 1 -22 -5
-23 -7 0 -3 -4 8 -9 11 -5 15 -9 9 -9 -12 -1 -12 -30 1 -50 5 -10 4 -12 -3 -7
-7 4 -12 2 -12 -3 0 -6 4 -11 8 -11 9 0 9 -41 -1 -57 -3 -5 0 -19 8 -29 18
-24 19 -37 3 -29 -7 4 -6 1 2 -7 9 -7 15 -28 15 -45 0 -18 3 -33 6 -33 3 0 4
-13 3 -30 -1 -16 3 -28 8 -27 6 1 13 -4 16 -12 3 -9 0 -11 -9 -6 -10 6 -9 2 2
-11 9 -10 20 -26 24 -34 7 -12 6 -13 -6 -5 -8 6 -6 2 5 -8 16 -15 17 -20 7
-27 -10 -6 -9 -9 7 -14 13 -5 19 -14 17 -25 -4 -24 23 -63 38 -55 8 5 8 2 -1
-7 -10 -11 -8 -16 10 -26 13 -7 17 -12 10 -13 -10 0 -10 -3 0 -14 7 -8 16 -12
20 -9 4 2 5 -4 1 -13 -5 -13 -3 -15 7 -9 10 6 12 4 7 -9 -4 -10 -3 -15 3 -11
6 3 10 -1 10 -10 0 -9 5 -13 10 -10 6 3 10 -1 10 -10 0 -9 5 -13 10 -10 6 3
10 2 10 -3 0 -17 59 -74 70 -67 6 3 9 3 8 -2 -2 -5 9 -21 23 -35 21 -21 29
-24 39 -15 7 7 11 8 8 2 -3 -5 6 -21 20 -35 13 -14 22 -19 18 -12 -4 6 -2 12
3 12 6 0 11 -4 11 -10 0 -5 7 -10 15 -10 8 0 15 -4 15 -10 0 -5 12 -10 28 -10
21 0 24 -2 12 -10 -11 -7 -7 -10 18 -10 17 0 32 -5 32 -11 0 -5 5 -7 10 -4 6
3 10 1 10 -6 0 -6 8 -9 20 -6 11 3 20 2 20 -3 0 -4 7 -11 16 -14 10 -4 13 -2
8 6 -5 8 -2 9 10 5 10 -4 20 -7 22 -7 3 0 2 -4 -1 -10 -3 -5 -1 -10 4 -10 6 0
11 5 11 11 0 6 6 4 14 -4 9 -8 26 -12 39 -10 14 3 28 0 31 -6 4 -6 14 -11 22
-11 8 0 12 5 9 10 -3 6 -1 10 4 10 6 0 11 -7 11 -15 0 -9 6 -12 15 -9 8 4 12
10 9 15 -3 5 0 9 5 9 6 0 11 -6 11 -12 0 -10 291 -13 1420 -13 1255 0 1420 2
1421 15 0 10 2 11 6 3 2 -7 14 -13 24 -13 11 0 18 4 15 8 -3 5 2 9 10 9 8 0
13 -6 10 -14 -4 -11 -1 -11 14 -3 11 6 20 13 20 16 0 3 -5 2 -12 -2 -7 -5 -8
-3 -3 6 6 10 11 9 22 -5 11 -15 13 -16 13 -3 0 11 8 14 31 12 22 -3 28 0 23 9
-4 6 -4 9 1 5 4 -4 14 -3 22 4 11 9 12 7 7 -8 -6 -16 -4 -16 15 4 24 24 36 29
25 10 -5 -10 -4 -10 6 -1 7 6 19 9 28 6 11 -5 13 -3 7 7 -6 10 -4 12 8 7 10
-3 17 -2 17 4 0 6 4 8 9 5 5 -3 11 0 14 8 3 9 16 13 31 12 14 -2 26 0 26 5 0
4 15 13 34 20 19 7 34 17 33 23 -1 6 6 10 17 8 11 -2 15 1 11 7 -3 6 1 11 10
11 17 0 53 29 38 31 -4 1 3 4 17 8 15 4 24 14 24 24 -1 9 2 15 6 12 5 -3 21 6
37 21 15 14 21 22 13 18 -8 -4 -1 6 15 22 17 16 34 27 38 26 5 -1 6 2 2 8 -8
13 14 42 26 34 5 -3 6 2 3 10 -3 9 -1 16 6 16 6 0 8 5 5 10 -3 6 -1 10 4 10 6
0 11 9 11 20 0 11 5 20 11 20 6 0 9 7 6 14 -4 10 -1 13 9 9 8 -3 14 -2 13 3
-4 23 2 45 10 39 6 -3 8 4 6 15 -2 11 1 20 6 20 6 0 7 5 4 10 -3 6 -1 10 4 10
6 0 10 3 10 8 -4 22 2 42 11 37 6 -3 10 -2 10 4 0 5 -6 12 -12 14 -10 4 -10 6
0 6 7 1 10 6 7 11 -3 6 -2 10 4 10 6 0 8 7 4 15 -3 9 3 25 13 36 16 18 16 19
1 13 -15 -6 -16 -4 -2 22 7 15 12 31 9 36 -3 5 0 15 6 23 8 10 9 15 2 15 -6 0
-9 7 -6 15 4 8 10 13 14 10 5 -3 5 9 -1 27 -11 41 -11 41 4 32 7 -5 6 0 -3 11
-14 17 -13 18 4 11 18 -6 19 -6 4 11 -14 16 -14 20 -2 31 11 10 12 17 4 27 -8
10 -7 14 2 18 10 4 10 6 -1 6 -10 1 -11 4 -2 15 9 10 9 16 1 21 -8 5 -8 11 1
21 9 11 9 14 -1 14 -9 0 -9 4 1 17 10 11 10 14 2 9 -16 -9 -16 -1 -3 24 7 13
7 21 -1 26 -8 4 -7 9 2 15 11 7 11 9 -1 9 -13 0 -13 1 0 10 12 8 12 10 1 10
-10 0 -11 3 -2 14 9 11 9 16 0 21 -8 6 -7 10 2 16 10 6 11 9 2 9 -7 0 -13 5
-13 11 0 5 4 8 8 5 10 -6 9 25 -2 42 -4 7 -2 12 6 12 9 0 9 3 -2 10 -13 9 -13
10 0 10 12 0 12 2 1 9 -9 6 -10 10 -2 16 9 5 9 10 1 20 -8 10 -7 14 2 18 10 4
10 6 1 6 -7 1 -13 6 -13 12 0 5 3 8 8 6 4 -3 7 8 7 23 1 16 -3 26 -7 24 -12
-8 -9 11 4 24 8 8 8 12 1 12 -8 0 -11 24 -4 50 0 3 12 7 27 8 17 1 23 -2 18
-11 -5 -9 -4 -9 7 0 7 7 32 13 56 13 36 0 42 3 37 18 -5 16 -5 16 6 -1 12 -19
35 -13 23 6 -4 7 0 6 10 -2 13 -10 17 -10 17 -1 0 10 3 10 15 0 9 -8 15 -9 15
-2 0 6 9 9 20 7 11 -2 23 2 27 8 8 12 31 19 70 19 14 0 20 5 16 14 -3 9 2 12
15 9 12 -2 23 3 26 12 4 9 14 13 26 10 13 -3 20 0 20 10 0 8 6 13 13 10 6 -2
18 3 25 12 8 9 11 11 8 4 -4 -7 1 -9 15 -6 14 4 17 8 9 13 -9 5 -9 9 -1 14 6
4 11 5 11 1 0 -3 9 -1 20 5 11 6 18 15 15 20 -3 6 1 7 9 4 9 -3 16 -1 16 4 0
6 9 14 20 17 11 4 17 11 14 17 -5 7 -1 9 9 5 11 -4 14 -2 11 8 -3 8 1 12 13
12 9 -1 18 4 19 11 3 25 5 27 14 12 8 -13 10 -12 10 3 0 9 4 17 10 17 5 0 9 3
9 8 -3 19 2 25 11 12 8 -13 10 -12 10 3 0 9 5 17 12 17 6 0 9 3 5 6 -7 8 22
39 37 39 6 0 10 8 10 18 -2 15 7 21 27 19 4 -1 5 8 2 18 -4 14 0 20 11 20 9 0
15 6 13 13 -1 6 4 11 11 9 8 -1 11 2 8 6 -3 5 3 17 14 27 11 10 20 27 20 38 0
11 3 17 7 14 3 -4 11 3 18 16 8 15 8 24 1 29 -6 4 -1 8 12 8 13 0 21 4 18 9
-9 14 5 43 18 38 8 -3 11 5 10 24 -1 16 2 27 6 24 4 -3 11 7 14 20 4 17 11 23
19 18 8 -4 7 -1 -2 10 -12 15 -11 17 3 17 17 0 18 20 1 32 -6 5 -3 8 7 8 9 0
20 5 24 12 5 7 2 9 -7 4 -8 -4 -6 -1 4 7 13 11 15 17 6 22 -8 6 -5 14 12 27
13 11 18 17 12 13 -7 -3 -13 -2 -13 3 0 6 8 13 17 16 12 5 14 9 5 18 -15 15
-15 28 -1 28 5 0 7 -5 3 -12 -4 -7 -3 -8 5 -4 6 4 9 11 6 16 -3 5 -1 11 4 14
5 4 8 17 7 31 -2 13 0 22 4 20 5 -3 11 2 14 11 4 10 2 13 -7 8 -8 -6 -8 -3 1
9 8 9 11 21 7 27 -3 5 -2 10 4 10 6 0 7 8 4 17 -5 12 -2 15 8 11 12 -5 14 1
13 26 -2 17 4 42 13 55 9 14 10 20 3 16 -8 -5 -11 -3 -8 6 3 8 9 13 14 12 5
-1 9 9 9 22 0 13 -4 20 -10 17 -5 -3 -3 2 5 12 8 11 13 29 12 41 -2 13 1 26 6
29 6 3 8 16 4 28 -4 16 -2 19 9 13 12 -8 12 -6 0 8 -11 14 -11 17 0 17 11 0
11 2 -1 10 -12 8 -12 10 5 11 11 0 14 3 7 6 -10 4 -10 8 -1 19 9 11 8 14 -2
14 -8 0 -6 5 6 13 14 11 15 16 5 22 -9 6 -11 4 -5 -5 5 -9 4 -11 -4 -6 -7 5
-9 12 -3 19 15 20 20 53 10 70 -7 13 -5 15 6 11 12 -4 14 0 10 21 -3 18 -1 24
7 20 8 -6 8 -2 0 14 -7 11 -8 21 -4 21 5 0 8 97 8 215 0 181 -2 217 -15 225
-14 9 -7 14 15 11 6 -1 3 4 -5 11 -17 15 -23 51 -7 41 6 -4 7 -1 1 8 -4 8 -9
29 -9 46 -1 18 -5 36 -10 40 -4 5 -5 -1 -1 -12 6 -16 5 -17 -5 -8 -10 10 -9
16 2 29 12 15 12 17 0 9 -11 -6 -13 -4 -8 8 4 10 1 17 -6 18 -7 0 -3 4 8 9 18
8 19 9 1 9 -12 1 -16 6 -13 16 4 8 2 17 -4 21 -6 4 -5 12 3 22 11 13 11 15 -4
10 -11 -5 -15 -2 -14 10 3 18 -13 52 -29 64 -6 5 -4 8 4 8 11 0 9 4 -5 15 -12
9 -14 14 -6 15 7 0 10 5 7 10 -4 6 -11 7 -17 4 -7 -5 -9 2 -6 19 4 18 1 24 -9
20 -8 -3 -13 2 -13 17 0 11 -4 18 -10 15 -6 -3 -7 1 -4 9 4 9 -1 18 -10 22 -9
3 -16 15 -16 26 0 10 -4 16 -10 13 -5 -3 -10 1 -10 10 0 9 -4 13 -10 10 -5 -3
-10 -1 -10 5 0 15 -25 40 -41 40 -7 0 -10 3 -6 6 7 7 -8 23 -38 41 -11 6 -19
16 -18 21 2 6 -6 9 -17 7 -13 -2 -20 2 -20 11 0 8 -4 12 -10 9 -5 -3 -10 -1
-10 5 0 7 -7 10 -15 7 -8 -4 -17 -1 -21 5 -5 7 -2 8 6 3 8 -5 11 -4 6 3 -4 6
-13 9 -21 5 -8 -3 -15 0 -15 6 0 6 -5 11 -11 11 -5 0 -8 -4 -5 -8 3 -5 -1 -9
-9 -9 -8 0 -14 3 -13 6 2 21 -4 29 -19 26 -10 -1 -28 3 -39 10 -16 11 -24 11
-34 2 -9 -8 -11 -8 -7 -1 4 7 -2 14 -13 17 -13 3 -18 1 -13 -6 4 -7 -1 -6 -10
2 -10 8 -20 11 -24 8 -3 -4 -13 -1 -21 6 -13 9 -14 9 -8 0 4 -7 2 -13 -3 -13
-6 0 -11 5 -11 12 0 9 -3 9 -12 0 -17 -17 -28 -15 -28 5 0 15 -1 15 -13 -2
-14 -18 -43 -13 -32 6 3 5 -1 6 -9 3 -9 -3 -13 -11 -9 -18 4 -6 -2 -4 -12 4
-11 9 -16 10 -11 3 4 -7 2 -13 -3 -13 -6 0 -11 5 -11 11 0 8 -6 7 -17 -2 -15
-12 -16 -12 -8 1 6 12 5 13 -6 3 -17 -17 -32 -17 -23 0 6 9 4 9 -7 1 -8 -6
-39 -11 -71 -10 -31 0 -54 -2 -52 -6 7 -11 -11 -18 -60 -20 -36 -2 -45 -6 -41
-18 3 -9 -1 -7 -10 4 -15 19 -15 19 -15 -3 0 -12 -4 -19 -10 -16 -6 4 -8 12
-4 18 3 7 -1 5 -8 -5 -11 -12 -18 -14 -32 -6 -14 8 -17 7 -12 -1 4 -6 2 -11
-4 -11 -6 0 -8 -4 -5 -10 3 -5 1 -10 -4 -10 -6 0 -11 6 -11 13 0 9 -2 9 -8 0
-12 -19 -44 -20 -47 0 -2 9 0 15 4 12 4 -2 8 2 8 10 0 8 -4 12 -9 9 -11 -7
-10 3 2 26 7 13 7 21 -1 26 -8 4 -7 9 2 15 11 7 11 9 -1 9 -13 0 -13 1 0 10
12 8 12 10 1 10 -10 0 -11 3 -2 14 9 11 9 16 0 21 -8 6 -7 10 2 16 10 6 11 9
2 9 -7 0 -13 5 -13 11 0 5 3 8 8 6 4 -3 7 8 7 23 1 16 -3 26 -7 24 -12 -8 -9
11 4 24 9 9 9 12 -1 12 -11 0 -11 3 0 17 10 11 10 14 2 9 -7 -4 -13 -3 -13 3
0 5 4 12 8 15 10 6 10 46 -1 63 -4 6 -1 14 5 16 7 3 4 6 -6 6 -20 1 -20 1 0
17 10 8 12 13 4 9 -8 -3 -5 2 8 11 12 9 22 23 22 30 0 8 5 14 10 14 6 0 10 7
10 15 0 8 7 15 16 15 8 0 13 4 10 8 -3 5 4 19 15 30 11 13 15 22 8 22 -7 0 -2
8 9 19 12 10 19 21 15 25 -3 3 -1 6 5 6 6 0 9 11 6 28 -3 20 -2 23 6 12 9 -14
15 -7 11 14 -1 5 2 12 6 15 15 11 34 52 28 61 -4 6 -1 10 6 10 8 0 8 4 -1 16
-8 8 -9 14 -4 13 21 -4 28 2 14 11 -13 8 -13 10 2 10 12 0 15 6 10 22 -3 14
-1 19 6 14 8 -5 10 -2 6 8 -3 9 -11 13 -17 9 -6 -3 -7 -1 -3 6 4 6 12 8 18 5
7 -5 9 4 6 24 -2 17 -1 29 3 27 4 -3 9 2 13 10 3 8 0 15 -6 15 -6 0 -5 6 3 17
12 15 12 16 -1 8 -12 -7 -13 -6 -3 7 7 8 10 18 6 21 -3 4 -2 7 4 7 13 0 8 47
-8 66 -10 12 -9 13 5 8 12 -5 15 -2 10 10 -3 9 0 24 7 33 12 15 12 16 -5 10
-18 -7 -18 -6 -2 17 11 18 13 27 4 32 -7 4 -8 3 -4 -4 5 -8 1 -10 -10 -5 -11
4 -13 8 -6 11 7 2 12 12 12 23 0 10 5 19 10 19 6 0 10 5 10 12 0 9 -3 9 -12 0
-18 -18 -33 -15 -17 4 10 13 10 17 -2 25 -12 7 -12 9 1 9 13 0 13 1 0 10 -13
9 -13 10 0 10 10 0 11 3 4 8 -6 4 -10 15 -8 25 1 9 -2 17 -7 17 -4 0 -6 7 -3
15 4 8 11 12 18 8 6 -3 7 -2 3 3 -5 5 -14 9 -20 9 -7 0 -11 12 -10 28 1 15 -2
25 -6 23 -5 -3 -7 6 -5 19 1 14 -2 23 -7 19 -9 -5 -11 3 -12 44 0 12 -4 22 -8
22 -5 0 -9 6 -9 14 0 8 -6 17 -12 19 -10 4 -10 6 0 6 10 1 10 4 0 15 -7 8 -15
13 -18 11 -3 -2 -6 11 -7 28 -1 18 -11 39 -22 48 -11 9 -17 19 -14 23 4 3 1 6
-6 6 -7 0 -9 5 -6 10 3 6 2 10 -4 10 -5 0 -13 9 -16 20 -3 11 -14 20 -23 21
-11 0 -12 2 -4 6 8 3 2 14 -18 33 -16 15 -30 31 -30 34 0 10 -39 46 -50 46 -5
0 -10 9 -10 20 0 14 -5 18 -17 13 -10 -4 -14 -2 -9 5 3 6 -3 13 -14 17 -11 3
-20 13 -20 21 0 8 -4 12 -10 9 -5 -3 -10 -1 -10 5 0 6 -4 9 -9 6 -5 -3 -11 3
-14 14 -4 14 -10 18 -23 13 -13 -5 -16 -3 -11 9 4 11 1 14 -12 11 -10 -2 -24
4 -32 14 -13 17 -13 17 6 3 19 -14 19 -14 6 3 -8 9 -16 15 -19 12 -3 -2 -21 5
-40 17 -23 14 -33 17 -28 7 4 -8 -2 -3 -13 10 -13 14 -21 18 -21 10 0 -11 -2
-11 -10 1 -5 8 -10 11 -10 5 -1 -5 -5 0 -10 13 -8 19 -13 21 -30 12 -16 -9
-22 -8 -26 5 -6 14 -8 14 -20 -2 -12 -15 -13 -16 -8 -1 4 13 0 16 -21 13 -16
-1 -29 3 -32 11 -3 8 -9 14 -15 14 -5 0 -6 -4 -3 -10 3 -6 -1 -7 -9 -4 -9 3
-13 11 -10 16 4 7 0 6 -12 0 -14 -7 -24 -6 -37 3 -10 7 -27 10 -39 7 -16 -4
-19 -2 -13 9 7 11 6 12 -6 3 -17 -13 -58 -13 -78 0 -10 6 -12 6 -7 -2 9 -15 1
-15 -26 -1 -15 8 -19 8 -14 0 4 -6 3 -11 -3 -11 -5 0 -13 5 -16 10 -5 8 -11 8
-20 0 -8 -6 -19 -10 -27 -9 -35 4 -79 -2 -73 -11 3 -5 1 -10 -4 -10 -6 0 -11
5 -11 10 0 6 -5 10 -11 10 -5 0 -7 -5 -3 -12 5 -8 0 -9 -14 -6 -12 4 -22 2
-22 -4 0 -5 -5 -6 -10 -3 -6 4 -18 1 -27 -7 -10 -7 -14 -8 -10 -1 8 13 -18 12
-30 -2 -4 -4 -2 -5 5 -1 6 4 12 2 12 -5 0 -6 -8 -9 -20 -6 -11 3 -23 1 -26 -5
-3 -5 -12 -7 -20 -4 -8 3 -17 -1 -20 -8 -3 -8 -16 -13 -30 -11 -18 2 -22 -1
-14 -10 7 -8 4 -11 -13 -10 -12 1 -24 9 -26 20 -2 13 -5 15 -11 5 -4 -7 -15
-10 -25 -7 -9 4 -13 11 -10 17 3 6 -1 7 -9 4 -9 -4 -16 -1 -16 6 0 10 -3 10
-15 0 -9 -7 -15 -8 -15 -2 0 6 -8 9 -17 7 -10 -1 -26 4 -35 12 -10 9 -28 13
-42 11 -15 -3 -27 0 -30 8 -3 8 -10 14 -16 14 -6 0 -9 -4 -6 -8 3 -5 -1 -9 -9
-9 -8 0 -12 4 -9 9 5 8 -32 12 -70 8 -13 -1 -16 2 -10 12 6 10 4 10 -9 -1 -14
-11 -20 -11 -34 0 -11 10 -14 10 -9 2 4 -7 3 -13 -3 -13 -5 0 -12 4 -16 10 -4
6 -15 6 -32 -1 -20 -7 -28 -6 -35 3 -5 8 -8 9 -8 2 0 -7 -14 -11 -35 -9 -19 1
-35 -2 -35 -7 0 -5 -10 -4 -22 3 -17 9 -20 9 -15 -3 3 -9 -1 -15 -9 -15 -9 0
-13 6 -9 15 4 12 2 12 -8 4 -8 -7 -18 -8 -22 -4 -5 4 -4 1 0 -7 6 -11 4 -13
-8 -8 -10 4 -17 1 -17 -6 0 -8 -4 -6 -10 3 -8 12 -10 12 -10 1 0 -10 -3 -11
-13 -2 -8 6 -17 8 -21 4 -4 -4 -9 3 -13 15 -3 12 -9 19 -14 16 -5 -3 -9 2 -9
11 0 9 -4 13 -10 10 -5 -3 -10 -1 -10 5 0 6 -4 8 -10 5 -5 -3 -10 1 -10 10 0
9 -4 14 -9 10 -5 -3 -24 8 -42 25 -19 16 -41 30 -49 30 -9 0 -27 11 -39 24
-15 16 -29 22 -43 18 -16 -4 -19 -2 -13 8 6 10 4 12 -8 7 -8 -3 -18 0 -21 8
-3 8 -16 12 -30 11 -17 -2 -26 2 -26 10 0 14 -5 16 -52 16 -16 1 -28 5 -28 11
0 5 -9 7 -20 4 -11 -3 -23 0 -27 5 -4 7 -1 8 7 3 9 -5 11 -4 6 3 -5 9 -13 9
-27 2 -14 -8 -19 -7 -19 2 0 9 -3 9 -12 0 -8 -8 -17 -6 -36 9 -20 15 -27 17
-34 7 -4 -7 -8 -8 -8 -3 0 6 -20 10 -45 11 -30 1 -42 -3 -38 -10 5 -8 3 -8 -8
0 -15 12 -87 13 -105 2 -6 -4 -14 -4 -18 -1 -11 12 -36 12 -36 0 0 -8 -4 -7
-12 1 -13 13 -16 13 -36 5z m-1252 -318 c0 -2 -9 -3 -19 -2 -11 0 -18 5 -15 9
4 6 34 0 34 -7z m1415 -204 c-3 -5 -1 -12 5 -16 5 -3 10 -1 10 5 0 8 6 8 20 0
15 -8 20 -8 20 2 1 8 7 5 15 -6 8 -11 15 -15 15 -10 0 6 7 11 15 11 8 0 15 -4
15 -9 0 -5 5 -6 10 -3 6 4 17 1 25 -5 8 -6 19 -9 25 -5 5 3 10 1 10 -4 0 -6 5
-11 11 -11 5 0 7 6 3 13 -6 8 -3 8 9 -1 9 -8 21 -11 26 -7 7 4 8 -1 4 -12 -3
-10 -3 -15 2 -11 4 4 15 2 23 -5 13 -10 15 -9 8 3 -4 9 -1 8 7 -2 8 -10 19
-18 26 -18 6 0 11 -6 11 -12 0 -10 2 -10 9 0 7 11 9 10 15 -3 3 -9 11 -13 17
-9 8 4 9 3 5 -4 -8 -13 28 -35 39 -24 3 4 6 2 5 -3 -5 -24 1 -34 18 -28 9 3
14 3 10 -2 -4 -4 9 -23 30 -42 20 -19 36 -39 34 -45 -1 -5 2 -7 8 -3 5 3 10
-2 10 -12 0 -15 2 -16 10 -3 8 13 11 11 16 -7 4 -14 14 -23 25 -23 11 0 19 -6
19 -12 0 -9 4 -8 10 2 8 13 10 13 10 -2 0 -9 5 -20 12 -24 7 -4 8 -3 4 4 -8
13 6 17 18 5 10 -11 37 -12 30 -2 -3 5 6 5 20 -1 19 -7 26 -6 26 3 0 8 4 7 10
-3 8 -12 10 -12 10 -1 0 8 7 11 20 8 11 -3 20 -1 20 4 0 5 3 8 8 8 25 -4 42 2
36 14 -4 6 -4 9 1 5 4 -4 15 -2 23 5 13 9 14 9 8 0 -4 -7 -3 -13 3 -13 5 0 11
4 13 10 2 5 19 10 38 11 19 2 41 7 49 13 12 9 13 8 6 -4 -8 -13 -7 -13 8 -1
14 11 17 11 17 0 0 -9 3 -10 8 -4 4 6 14 10 22 10 8 0 18 4 22 10 5 6 8 3 8
-7 0 -10 5 -18 11 -18 5 0 7 6 3 13 -6 9 -4 9 8 -1 11 -9 17 -9 20 -2 3 11 53
0 92 -21 13 -7 16 -7 11 0 -3 6 -1 11 4 11 6 0 11 -7 11 -15 0 -8 5 -15 11
-15 5 0 7 4 4 10 -3 6 1 7 9 4 9 -3 16 -11 16 -18 0 -6 5 -4 10 4 8 12 10 10
10 -10 0 -19 3 -22 9 -11 7 12 13 12 24 3 7 -7 17 -9 20 -5 4 3 7 -1 7 -10 0
-10 8 -17 20 -17 11 0 20 -4 20 -9 0 -5 7 -12 16 -15 15 -6 15 -4 3 11 -7 10
-1 7 14 -6 15 -14 27 -19 27 -13 0 6 7 9 15 6 8 -4 12 -10 9 -15 -3 -5 0 -9 5
-9 6 0 11 3 11 8 0 4 22 7 50 6 27 -1 50 2 50 6 0 5 7 11 16 14 8 3 12 2 9 -4
-3 -6 -1 -10 4 -10 11 0 15 15 12 34 -1 5 5 4 13 -4 15 -12 21 -7 17 14 -1 5
5 4 13 -4 13 -10 16 -10 16 3 0 9 5 19 12 23 7 5 9 2 4 -7 -4 -8 -2 -7 6 2 7
9 21 15 31 13 10 -1 14 2 10 8 -4 7 2 9 16 5 16 -4 21 -2 17 8 -5 14 11 15 33
1 10 -6 12 -5 7 2 -7 11 6 17 28 13 5 -1 16 1 25 5 27 12 41 13 35 2 -4 -6 -1
-8 7 -6 8 3 13 12 11 19 -2 11 1 11 10 -1 14 -16 36 -19 56 -7 7 5 12 4 12 -2
0 -6 5 -11 11 -11 5 0 7 6 3 13 -6 10 -4 10 7 0 17 -16 53 -17 43 -1 -4 7 -3
8 4 4 7 -4 12 -13 12 -20 0 -8 9 -16 20 -19 13 -3 18 -1 13 6 -4 7 1 5 12 -3
10 -8 21 -15 24 -15 3 0 5 -3 4 -7 -2 -4 4 -5 12 -2 9 4 15 0 15 -7 0 -11 3
-11 10 1 9 13 10 13 11 0 1 -8 1 -19 0 -23 -1 -4 4 -7 11 -6 29 4 40 -2 34
-17 -4 -10 -1 -14 6 -11 7 2 19 -3 26 -12 8 -10 11 -10 6 -2 -4 9 -3 12 4 7 6
-3 9 -15 7 -26 -2 -12 0 -18 6 -15 11 7 41 -20 32 -29 -3 -3 2 -8 11 -12 9 -3
13 -10 10 -15 -3 -5 2 -9 10 -9 10 0 16 -9 16 -21 0 -11 12 -37 28 -57 15 -20
21 -33 15 -28 -7 4 -13 2 -13 -3 0 -6 5 -11 11 -11 5 0 7 -4 4 -10 -3 -5 -1
-10 5 -10 8 0 7 -6 -1 -21 -8 -15 -8 -19 0 -15 6 4 11 0 11 -9 0 -9 4 -13 10
-10 6 3 7 -1 4 -9 -3 -9 -10 -13 -15 -10 -5 3 -6 -2 -3 -10 3 -9 11 -16 18
-16 6 0 4 -5 -4 -10 -12 -8 -12 -10 -1 -10 11 0 11 -3 0 -16 -8 -9 -9 -18 -3
-22 9 -6 10 -30 4 -57 -1 -5 -1 -12 0 -15 7 -19 7 -39 -1 -34 -5 3 -6 11 -3
17 4 7 5 10 1 7 -3 -3 -6 -9 -7 -15 -1 -5 -6 -15 -12 -22 -6 -8 -5 -19 2 -34
10 -17 9 -20 -1 -14 -9 6 -11 2 -7 -13 4 -14 2 -20 -5 -15 -7 4 -8 0 -4 -11 4
-9 3 -15 -2 -12 -4 3 -14 -13 -21 -35 -8 -23 -20 -43 -27 -46 -7 -3 -10 -10
-6 -16 4 -6 0 -8 -10 -4 -11 4 -14 2 -10 -8 3 -8 -2 -18 -11 -21 -9 -3 -14 -9
-13 -13 2 -3 -4 -14 -15 -23 -10 -10 -18 -16 -18 -13 0 3 -6 0 -14 -7 -8 -7
-12 -16 -10 -20 2 -3 -10 -11 -27 -17 -19 -7 -28 -15 -23 -22 4 -7 3 -9 -4 -5
-6 3 -14 1 -18 -5 -4 -8 -9 -7 -15 2 -7 11 -9 11 -9 -2 0 -9 -7 -20 -16 -23
-10 -4 -13 -2 -9 7 4 6 0 4 -8 -5 -16 -21 -31 -24 -22 -5 4 6 -1 3 -9 -7 -9
-11 -16 -14 -16 -7 0 9 -5 8 -21 -3 -12 -8 -28 -12 -35 -9 -8 3 -14 1 -14 -4
0 -5 -7 -10 -15 -10 -8 0 -15 5 -15 11 0 6 -5 5 -12 -2 -16 -16 -31 -15 -22 1
5 8 2 8 -9 -2 -12 -9 -17 -10 -17 -2 0 7 -4 9 -10 6 -18 -11 -51 -14 -45 -4 4
5 11 6 17 3 6 -4 8 -2 5 3 -4 6 -18 8 -32 5 -16 -3 -25 0 -25 8 0 10 -3 10
-15 0 -8 -7 -15 -8 -15 -3 0 5 -6 10 -12 10 -7 1 -32 2 -55 4 -27 1 -40 6 -36
13 3 6 0 5 -7 -1 -11 -10 -17 -10 -29 0 -11 9 -13 9 -8 0 5 -7 1 -12 -10 -12
-52 -2 -88 -10 -86 -19 2 -6 -4 -9 -12 -6 -9 4 -22 1 -30 -6 -8 -7 -15 -9 -15
-6 0 4 -6 1 -14 -6 -8 -7 -11 -17 -8 -23 2 -5 -1 -5 -8 2 -11 10 -17 8 -32 -9
-10 -12 -18 -17 -18 -13 0 10 -54 -47 -55 -57 0 -4 -6 -13 -14 -20 -12 -11
-13 -11 -6 1 5 10 4 12 -4 7 -6 -4 -9 -11 -6 -16 3 -5 1 -11 -5 -15 -6 -4 -8
-11 -4 -16 3 -5 0 -8 -8 -7 -8 2 -12 -4 -10 -15 2 -9 -4 -20 -13 -23 -8 -3
-15 -10 -15 -16 0 -5 6 -6 13 -3 6 4 4 0 -5 -8 -10 -8 -15 -17 -11 -20 3 -4 1
-7 -6 -7 -8 0 -11 -7 -7 -15 3 -8 2 -15 -2 -15 -5 0 -7 -14 -6 -30 2 -27 0
-29 -14 -18 -13 11 -14 10 -4 -9 8 -14 8 -24 2 -28 -5 -3 -8 -23 -6 -43 2 -20
-1 -43 -7 -49 -6 -9 -6 -13 3 -13 9 0 9 -4 -1 -17 -12 -15 -12 -16 1 -8 13 8
13 7 1 -8 -10 -13 -10 -17 -1 -17 10 0 10 -3 0 -15 -7 -8 -8 -15 -3 -15 5 0 9
-9 10 -20 1 -13 -2 -18 -9 -14 -7 4 -8 2 -4 -4 12 -21 15 -51 5 -58 -6 -4 -6
-11 1 -19 7 -8 8 -20 4 -26 -4 -7 -3 -9 3 -6 6 4 13 0 16 -8 4 -10 1 -12 -11
-9 -16 5 -16 5 0 -8 12 -10 13 -19 7 -31 -6 -11 -6 -17 -1 -17 6 0 13 -7 16
-16 5 -14 4 -15 -9 -4 -14 11 -14 10 -5 -14 5 -15 10 -41 10 -57 0 -16 6 -29
13 -30 8 0 8 -2 -2 -6 -11 -5 -11 -7 0 -14 12 -7 11 -9 -1 -9 -11 0 -12 -2 -3
-8 7 -4 14 -31 15 -60 2 -29 6 -52 11 -52 4 0 7 -5 7 -11 0 -5 -6 -7 -12 -3
-7 4 -2 -5 12 -20 15 -16 18 -25 9 -21 -10 4 -16 0 -16 -9 0 -9 6 -12 16 -8
14 5 14 3 2 -11 -10 -13 -10 -17 -1 -17 10 0 10 -3 0 -15 -10 -12 -9 -15 6
-16 11 0 14 -3 7 -5 -7 -3 -9 -12 -6 -20 3 -7 10 -11 15 -8 6 4 5 -3 -1 -15
-7 -11 -8 -21 -4 -21 5 0 8 -22 8 -49 0 -27 2 -49 5 -49 19 1 23 -4 10 -12
-10 -6 -11 -10 -2 -10 6 0 12 -5 12 -11 0 -5 -5 -7 -12 -3 -6 4 -4 -3 4 -15
10 -13 14 -35 11 -52 -2 -18 0 -29 7 -29 8 0 10 -9 6 -24 -3 -14 -2 -27 3 -30
11 -7 9 -25 -3 -45 -6 -9 -5 -12 2 -7 6 3 13 2 17 -4 3 -5 3 -10 -2 -10 -4 0
-8 -11 -8 -24 0 -13 4 -22 9 -19 5 3 7 -8 4 -25 -3 -22 -1 -29 9 -25 9 4 11 0
7 -11 -3 -9 -10 -13 -15 -10 -14 9 -10 -3 7 -21 13 -12 14 -19 4 -30 -7 -8 -9
-15 -4 -15 5 0 10 -30 11 -66 1 -36 7 -72 14 -80 9 -11 7 -15 -6 -20 -13 -5
-14 -9 -3 -15 7 -5 9 -9 3 -9 -11 0 -12 -66 -2 -77 4 -3 3 -11 -1 -17 -4 -6
-7 -14 -8 -18 -1 -5 -2 -9 -4 -10 -7 -10 -6 -37 1 -32 5 3 6 10 3 16 -4 7 -2
8 5 4 8 -5 6 -15 -9 -33 -16 -21 -18 -29 -8 -41 9 -11 9 -14 1 -9 -6 4 -14 3
-18 -3 -3 -5 -1 -10 5 -10 6 0 8 -5 5 -10 -4 -6 -11 -7 -17 -4 -6 4 -5 -2 1
-15 9 -17 9 -21 -1 -19 -8 2 -12 -5 -10 -17 2 -11 0 -17 -4 -13 -4 5 -16 -6
-26 -23 -12 -19 -24 -29 -33 -25 -8 3 -14 2 -14 -2 4 -22 -4 -29 -30 -27 -19
2 -28 -2 -25 -9 3 -7 -11 -12 -37 -13 -23 -1 -46 -8 -50 -15 -7 -10 -9 -10 -9
0 0 6 -5 12 -11 12 -5 0 -7 -5 -3 -12 5 -7 3 -8 -7 -2 -20 12 -39 14 -39 3 0
-5 -5 -9 -11 -9 -5 0 -7 6 -3 13 4 6 -2 4 -14 -7 -20 -17 -22 -18 -28 -2 -5
13 -9 14 -14 6 -4 -7 -13 -9 -19 -6 -6 4 -8 12 -5 18 5 7 2 8 -5 4 -7 -5 -10
-15 -7 -25 5 -13 3 -13 -8 2 -9 11 -17 14 -21 8 -4 -7 -14 -5 -31 5 -19 13
-24 14 -25 3 0 -8 -3 -9 -5 -3 -2 5 -18 9 -34 8 -17 -1 -28 2 -25 6 6 10 -20
32 -28 23 -4 -3 -13 0 -21 6 -8 7 -21 9 -28 5 -8 -5 -8 -1 2 11 8 10 10 16 4
12 -17 -10 -65 39 -58 58 4 9 3 15 -2 14 -20 -3 -31 2 -31 16 0 8 4 12 9 9 15
-9 8 6 -12 28 -16 17 -17 24 -7 37 10 12 9 13 -2 6 -11 -6 -13 -4 -8 8 3 10 3
17 -1 17 -4 0 -8 9 -9 20 -1 14 2 18 10 13 7 -4 5 4 -4 18 -12 18 -14 30 -7
42 6 12 5 17 -4 17 -8 0 -9 3 -3 8 14 10 17 32 4 32 -8 0 -7 6 2 17 12 15 12
16 -1 8 -13 -8 -13 -7 -1 8 11 14 11 17 0 18 -10 0 -11 2 -1 6 6 2 9 10 5 16
-11 18 -11 47 0 40 5 -3 6 4 2 17 -6 17 -4 21 6 14 11 -6 12 -5 2 8 -7 8 -10
18 -6 21 3 4 6 23 5 44 -1 20 4 43 11 52 9 12 9 13 0 7 -16 -9 -17 6 -1 22 9
9 9 12 -2 12 -11 0 -12 2 -3 8 7 4 13 31 14 60 2 44 5 52 18 47 11 -3 10 0 -3
10 -11 8 -15 15 -9 15 9 0 25 79 24 123 0 9 5 15 11 11 6 -4 5 3 -2 16 -7 12
-8 20 -2 16 14 -9 22 20 9 33 -8 8 -8 11 0 11 6 0 10 14 9 30 -2 21 2 30 13
30 14 0 14 1 1 10 -13 9 -13 10 0 10 13 0 13 1 0 10 -9 6 -11 10 -3 10 7 0 10
7 6 17 -5 12 -3 14 8 8 12 -8 12 -6 0 8 -11 14 -11 17 0 18 11 0 11 2 1 6 -10
4 -9 9 5 20 10 8 11 11 3 7 -13 -7 -13 -5 -1 9 11 14 11 17 0 18 -8 0 -5 4 6
9 11 5 15 9 8 9 -14 1 -6 32 11 43 7 5 6 8 -3 8 -11 0 -11 3 0 17 9 11 10 14
2 9 -9 -5 -11 -2 -7 8 3 9 9 14 13 11 4 -2 8 2 8 10 0 8 -4 12 -8 9 -4 -2 -11
0 -14 6 -4 6 -3 10 2 9 20 -3 34 2 28 11 -4 6 -12 7 -18 3 -7 -3 -3 4 8 17 12
14 14 20 5 15 -12 -6 -13 -5 -3 5 9 10 10 17 2 27 -9 10 -7 13 7 13 16 0 17 2
4 10 -12 8 -12 10 -1 10 11 0 11 3 0 17 -8 9 -9 14 -3 10 16 -10 28 25 12 35
-10 6 -10 8 2 8 13 0 13 1 0 10 -12 7 -12 10 -1 10 9 0 11 8 7 26 -5 19 -4 24
6 18 10 -6 9 -3 -1 9 -11 14 -11 17 0 17 11 0 11 2 -1 10 -12 8 -12 10 -1 10
8 0 11 3 8 6 -3 4 -2 15 4 25 7 15 6 21 -5 25 -13 5 -12 9 7 25 16 14 17 17 4
13 -14 -5 -16 -2 -11 12 4 11 12 25 18 33 8 11 8 13 -1 8 -6 -4 -14 -3 -18 3
-3 5 1 10 11 10 11 0 14 4 7 13 -5 6 -8 28 -7 47 0 19 -3 43 -8 54 -7 13 -7
16 1 12 6 -4 11 -3 11 3 0 5 -5 11 -11 13 -7 2 -13 17 -14 33 -2 17 -4 30 -5
30 -1 0 -3 13 -5 28 -2 16 -10 36 -17 45 -11 13 -11 15 2 7 10 -5 9 -1 -3 13
-11 11 -16 25 -13 30 3 5 -1 15 -9 22 -8 7 -12 17 -8 23 3 6 1 7 -5 3 -13 -8
-35 28 -24 39 4 5 -1 5 -11 2 -11 -4 -16 -3 -12 3 3 6 -1 13 -9 16 -8 3 -18
15 -22 26 -4 15 -8 17 -14 8 -6 -9 -10 -7 -15 9 -3 12 -15 21 -26 21 -11 0
-19 7 -19 16 0 8 -4 12 -10 9 -5 -3 -10 0 -11 7 0 10 -2 11 -6 0 -3 -9 -10 -7
-24 9 -10 12 -19 17 -19 10 0 -8 -5 -7 -16 3 -20 20 -30 21 -14 1 11 -13 10
-14 -4 -9 -9 3 -16 10 -16 16 0 5 -4 6 -10 3 -5 -3 -10 -1 -10 4 0 6 -5 11
-11 11 -5 0 -8 -4 -4 -9 3 -5 1 -13 -5 -16 -6 -4 -10 -3 -9 2 3 18 -2 24 -13
17 -17 -10 -48 -13 -43 -3 3 4 -2 10 -11 13 -8 3 -13 2 -10 -3 3 -5 -2 -12
-11 -15 -9 -4 -20 -1 -24 5 -4 6 -12 8 -18 5 -6 -4 -8 -12 -5 -18 5 -7 2 -8
-6 -3 -34 21 -75 5 -45 -17 6 -5 3 -8 -7 -8 -9 0 -20 5 -23 10 -4 7 -14 5 -27
-4 -11 -8 -27 -12 -35 -9 -8 3 -19 0 -24 -8 -10 -16 -29 -19 -46 -7 -6 5 -14
5 -18 -2 -3 -5 -11 -10 -16 -10 -6 0 -7 6 -3 13 5 8 2 8 -9 -2 -13 -10 -17
-10 -17 -1 0 10 -3 10 -15 0 -11 -9 -15 -9 -15 -1 0 7 -5 9 -12 4 -7 -4 -23
-8 -36 -9 -18 -1 -21 3 -16 20 6 21 6 21 -10 1 -8 -11 -16 -15 -16 -8 0 6 -9
10 -20 8 -11 -2 -20 1 -20 6 0 6 -9 7 -21 4 -14 -5 -19 -4 -15 4 5 7 1 9 -8 5
-9 -3 -16 -1 -16 6 0 6 -4 8 -10 5 -5 -3 -10 0 -10 7 0 9 -3 9 -10 -2 -8 -13
-10 -13 -10 1 0 9 -7 20 -16 23 -8 3 -12 2 -9 -4 3 -6 -1 -7 -10 -4 -9 4 -14
12 -11 20 3 8 -2 11 -15 9 -10 -2 -19 0 -19 6 0 5 -6 9 -14 9 -8 0 -17 7 -20
16 -3 9 -11 12 -18 8 -8 -5 -9 -2 -5 10 4 9 3 15 -2 11 -6 -3 -14 3 -20 12 -6
10 -11 14 -11 9 0 -4 -8 1 -17 13 -10 11 -30 22 -45 24 -15 1 -31 7 -35 12 -5
4 -1 5 7 0 12 -7 13 -6 2 6 -11 12 -14 12 -22 -1 -9 -14 -15 -7 -11 14 1 5 -5
4 -13 -4 -13 -10 -16 -10 -16 0 0 9 -4 9 -17 -1 -15 -12 -16 -12 -8 1 6 12 5
13 -5 3 -10 -9 -17 -10 -27 -2 -9 8 -14 7 -19 -5 -3 -9 -10 -16 -16 -16 -5 0
-6 6 -3 13 4 6 -2 1 -13 -12 -14 -17 -21 -20 -27 -11 -5 9 -14 5 -31 -15 -14
-17 -28 -24 -36 -19 -7 4 -10 4 -7 0 10 -11 -60 -78 -73 -70 -6 4 -8 3 -5 -3
4 -6 1 -16 -7 -22 -11 -9 -15 -9 -19 1 -4 9 -6 7 -6 -4 -1 -9 -6 -20 -13 -24
-7 -5 -9 -2 -4 7 4 8 -2 3 -14 -11 -12 -14 -19 -19 -15 -12 9 17 -11 15 -29
-4 -9 -8 -16 -12 -16 -8 0 4 -10 -2 -23 -14 -17 -17 -26 -19 -35 -10 -8 8 -15
8 -26 -1 -10 -9 -16 -9 -21 -1 -5 8 -12 5 -21 -7 -13 -17 -14 -17 -8 1 6 16 4
17 -14 7 -15 -8 -23 -8 -28 0 -4 8 -9 7 -15 -2 -8 -12 -11 -11 -19 1 -7 11
-10 12 -10 2 0 -11 -3 -10 -14 1 -8 8 -26 13 -40 12 -14 -2 -26 1 -26 6 0 4
-6 6 -14 3 -7 -3 -20 1 -27 9 -8 7 -20 12 -28 9 -9 -3 -11 0 -6 8 5 9 2 10
-14 5 -15 -4 -21 -2 -21 9 0 10 -6 13 -17 9 -10 -4 -14 -2 -10 4 3 5 -6 16
-21 24 -15 8 -34 22 -43 31 -9 10 -19 14 -23 10 -4 -4 -7 -2 -6 3 4 19 0 36
-7 32 -5 -3 -13 1 -20 8 -10 11 -10 15 0 18 7 3 4 6 -6 6 -10 1 -16 5 -12 10
3 5 -4 13 -16 16 -17 6 -19 9 -8 16 10 6 11 9 2 9 -7 0 -13 9 -13 19 0 11 -5
23 -12 27 -7 5 -8 3 -3 -6 5 -8 4 -11 -3 -7 -5 4 -8 15 -5 26 3 10 -2 21 -10
24 -9 3 -14 17 -12 36 2 19 -3 32 -13 36 -13 5 -12 9 4 27 11 12 13 18 7 14
-13 -7 -17 3 -13 38 1 12 -2 16 -12 11 -10 -6 -11 -5 0 6 15 16 16 43 1 34 -6
-5 -6 2 2 16 25 48 27 56 18 71 -6 11 -5 19 1 23 6 4 8 11 5 16 -4 5 -2 9 4 9
6 0 7 7 4 17 -4 10 -2 14 4 10 5 -3 10 0 10 8 0 8 -4 12 -9 9 -5 -3 1 11 12
30 11 20 19 39 17 42 -1 3 7 15 19 27 12 12 24 32 28 45 4 12 11 20 15 17 5
-2 28 17 51 43 24 26 39 41 35 33 -5 -9 -4 -12 3 -7 7 4 12 14 12 21 0 9 6 12
17 8 12 -5 14 -3 8 7 -6 10 -4 12 8 7 10 -3 17 -3 17 1 0 9 88 47 103 44 4 -1
7 1 7 6 0 6 19 9 92 13 18 1 25 6 21 13 -3 6 0 6 8 -1 7 -7 19 -13 27 -13 8 0
10 5 6 13 -6 9 -5 9 8 0 8 -7 18 -10 21 -6 4 3 7 2 7 -4 0 -6 10 -9 23 -9 12
1 28 -2 35 -7 8 -6 12 -5 12 2 0 7 5 9 10 6 6 -4 8 -11 4 -16 -3 -6 5 -8 20
-5 15 3 24 1 21 -4 -3 -5 -1 -11 5 -15 5 -3 10 -1 10 6 0 7 8 4 18 -7 9 -10
24 -20 32 -22 8 -2 19 -10 23 -18 5 -8 12 -12 17 -9 5 3 22 -1 38 -9 16 -8 32
-12 36 -9 3 4 6 1 6 -5 0 -7 5 -12 11 -12 5 0 8 4 5 9 -4 5 2 8 11 6 10 -1 17
-9 15 -16 -3 -10 1 -9 15 2 10 9 33 15 50 14 18 -2 30 1 27 6 -3 5 9 12 26 16
18 3 34 12 37 19 3 8 9 11 14 8 5 -3 6 3 2 12 -4 12 -3 15 5 10 7 -4 12 -2 12
4 0 6 5 8 12 4 8 -5 9 -2 4 12 -4 10 -4 15 0 12 10 -11 36 20 28 33 -4 8 -3 9
4 5 8 -4 16 3 22 18 5 14 12 26 15 26 4 0 3 -6 0 -12 -4 -7 0 -4 9 6 8 10 13
23 10 27 -2 4 4 6 15 4 15 -3 18 0 14 12 -4 10 -2 14 4 10 6 -4 13 0 17 8 3 8
12 15 20 15 7 0 17 7 20 16 4 9 13 14 22 10 8 -3 12 -2 9 4 -3 6 -1 10 5 10 6
0 8 5 4 11 -4 8 0 9 15 4 14 -4 23 -1 27 9 3 9 10 14 14 11 12 -7 61 21 52 30
-4 4 3 3 15 -4 27 -14 33 -14 33 0 0 5 -5 7 -12 3 -7 -4 -8 -3 -4 5 4 6 12 9
17 6 5 -4 9 0 10 7 0 10 2 10 6 1 2 -7 9 -13 14 -13 6 0 7 5 4 10 -8 13 18 8
27 -5 5 -6 8 -6 8 1 0 6 14 11 30 12 20 0 28 -3 25 -11 -3 -7 2 -2 11 11 16
21 31 31 19 13z m-1885 -85 c0 -2 -8 -10 -17 -17 -16 -13 -17 -12 -4 4 13 16
21 21 21 13z m4700 -196 c0 -5 -2 -10 -4 -10 -3 0 -8 5 -11 10 -3 6 -1 10 4
10 6 0 11 -4 11 -10z m-3590 -914 c0 -2 -7 -7 -16 -10 -8 -3 -12 -2 -9 4 6 10
25 14 25 6z m-1120 -442 c0 -8 -19 -13 -24 -6 -3 5 1 9 9 9 8 0 15 -2 15 -3z
m1334 -79 c8 -8 17 -15 21 -15 4 0 13 -7 21 -15 8 -8 22 -11 31 -8 11 4 14 3
9 -5 -7 -11 -3 -14 27 -16 6 -1 18 -7 25 -14 8 -7 18 -10 23 -7 5 4 9 2 9 -3
0 -5 7 -9 15 -10 8 -1 22 -3 30 -4 8 -1 15 -6 15 -11 0 -5 9 -7 20 -4 13 3 20
0 20 -9 0 -8 5 -14 11 -14 5 0 8 4 5 8 -3 5 1 9 9 9 8 0 11 -5 8 -10 -4 -6 0
-8 10 -4 10 3 17 2 17 -3 0 -14 27 -12 33 3 3 7 6 5 6 -5 1 -19 21 -25 21 -7
0 8 5 8 15 -1 8 -7 15 -9 15 -5 0 5 8 1 18 -8 15 -14 19 -15 19 -2 0 8 -5 11
-10 8 -6 -3 -7 -1 -4 5 5 7 16 7 37 -1 20 -7 25 -14 17 -19 -21 -14 0 -9 29 7
25 13 30 13 38 1 9 -12 12 -12 23 2 12 16 13 16 7 0 -4 -13 -1 -15 16 -11 16
4 18 8 8 14 -7 5 -9 9 -4 9 5 0 18 -8 28 -17 16 -15 18 -15 13 -1 -8 19 11 33
21 17 5 -8 3 -9 -6 -4 -9 5 -11 4 -6 -3 5 -9 13 -9 27 -2 10 6 19 7 19 3 0 -4
5 -1 10 7 8 13 10 13 10 1 0 -11 3 -12 12 -3 8 8 17 8 30 1 15 -8 20 -6 28 13
6 17 9 18 9 6 1 -11 6 -15 16 -12 8 4 13 9 11 13 -3 4 4 8 15 8 13 1 19 -5 20
-20 1 -12 2 -33 2 -47 1 -14 -5 -31 -13 -38 -8 -8 -10 -11 -4 -8 7 3 12 -4 12
-18 0 -18 -5 -23 -17 -19 -11 4 -10 1 4 -10 15 -13 16 -16 5 -17 -13 0 -13 -1
0 -10 11 -7 11 -10 2 -10 -7 0 -10 -4 -7 -10 3 -5 0 -10 -7 -10 -9 0 -9 -3 2
-10 8 -5 10 -10 5 -10 -6 0 -10 -12 -10 -27 1 -16 -3 -34 -8 -40 -6 -9 -5 -13
2 -13 7 0 9 -5 6 -10 -4 -6 -11 -7 -17 -4 -7 5 -7 1 0 -12 7 -13 6 -26 -5 -47
-11 -22 -12 -27 -1 -21 10 6 11 5 2 -7 -6 -8 -11 -27 -10 -42 1 -16 -3 -31 -8
-34 -5 -3 -6 -1 -2 5 4 7 2 12 -4 12 -7 0 -10 -6 -7 -12 3 -7 8 -20 12 -29 3
-9 -1 -23 -10 -33 -9 -9 -13 -17 -8 -17 4 -1 -5 -5 -22 -8 -17 -4 -36 -3 -44
3 -12 9 -13 7 -8 -7 4 -11 3 -16 -3 -12 -6 3 -10 14 -11 23 0 14 -2 14 -8 -2
-4 -11 -10 -15 -14 -9 -4 6 -24 7 -51 3 -25 -4 -43 -3 -41 1 3 4 -2 9 -10 12
-9 4 -12 1 -8 -9 3 -9 0 -13 -8 -10 -47 15 -70 16 -63 4 6 -10 3 -9 -9 1 -15
12 -17 11 -17 -5 -1 -17 -2 -17 -10 -3 -6 11 -18 15 -35 12 -14 -3 -22 -10
-18 -16 3 -6 1 -7 -6 -3 -6 4 -9 11 -7 15 3 4 -10 7 -29 7 -21 0 -31 -4 -27
-10 3 -6 -2 -5 -11 3 -15 12 -17 11 -18 -5 -1 -14 -3 -13 -9 6 -6 20 -8 21 -9
6 -1 -14 -4 -17 -11 -10 -7 7 -29 8 -55 4 -24 -4 -42 -3 -40 1 3 4 -2 9 -10
12 -9 4 -12 1 -8 -9 3 -9 0 -13 -8 -10 -47 15 -70 16 -63 4 6 -10 3 -9 -9 1
-15 12 -17 11 -18 -5 -1 -14 -3 -13 -9 6 -6 20 -8 21 -9 6 -1 -14 -4 -17 -11
-10 -7 7 -29 8 -55 4 -24 -4 -42 -3 -40 1 3 4 -2 9 -10 12 -9 4 -12 1 -8 -9 3
-9 0 -13 -8 -10 -47 15 -70 16 -63 4 6 -10 3 -9 -9 1 -15 12 -17 11 -18 -5 0
-11 -3 -14 -6 -6 -2 7 -14 17 -26 24 l-22 11 20 -24 c11 -13 13 -18 4 -11 -9
6 -19 9 -22 5 -4 -3 -7 0 -7 7 0 10 -3 11 -11 3 -8 -8 -20 -8 -35 -3 -15 6
-24 6 -24 0 0 -6 -6 -10 -13 -10 -8 0 -14 -14 -15 -36 -2 -25 1 -34 9 -28 9 5
9 3 3 -7 -12 -19 -14 -217 -2 -248 8 -22 7 -23 -9 -10 -10 8 -14 9 -10 2 12
-19 16 -106 6 -125 -8 -14 -6 -16 8 -11 15 5 16 4 7 -8 -7 -8 -11 -34 -10 -59
2 -25 -1 -50 -6 -57 -5 -6 -5 -14 0 -16 4 -3 7 -43 6 -89 -1 -45 2 -93 7 -107
9 -22 8 -23 -8 -10 -10 8 -14 9 -10 2 12 -19 16 -106 6 -125 -8 -14 -6 -16 8
-11 15 5 16 4 7 -8 -7 -8 -11 -34 -10 -59 2 -25 -1 -50 -6 -57 -5 -6 -5 -14 0
-16 4 -3 7 -43 6 -89 -1 -45 2 -93 7 -107 9 -22 8 -23 -8 -10 -10 8 -14 9 -10
2 12 -19 16 -106 6 -125 -8 -14 -6 -16 8 -11 15 5 16 4 7 -8 -7 -8 -11 -34
-10 -59 2 -25 -1 -50 -6 -57 -5 -6 -5 -14 0 -16 4 -3 7 -43 6 -89 -1 -45 2
-93 7 -107 9 -22 8 -23 -8 -10 -12 10 -15 10 -9 1 13 -21 14 -126 2 -141 -8
-11 -8 -13 0 -8 7 4 15 0 18 -9 3 -9 2 -12 -5 -8 -7 4 -10 -3 -8 -17 2 -13 -1
-30 -5 -38 -6 -9 -5 -12 1 -8 6 4 14 0 17 -9 3 -9 2 -12 -5 -8 -7 4 -10 -3 -8
-17 2 -13 -1 -30 -5 -38 -6 -9 -5 -12 1 -8 6 4 14 0 17 -9 3 -9 2 -12 -5 -8
-7 4 -10 -3 -8 -17 2 -13 -1 -30 -5 -38 -6 -9 -5 -12 1 -8 6 4 14 0 17 -9 3
-9 2 -12 -5 -8 -7 4 -10 -3 -8 -17 2 -13 -1 -30 -5 -38 -6 -9 -5 -12 1 -8 6 4
14 0 17 -9 3 -9 2 -12 -5 -8 -7 4 -10 -3 -8 -17 2 -13 -1 -30 -5 -38 -6 -9 -5
-12 1 -8 6 4 14 0 17 -9 3 -9 2 -12 -5 -8 -7 4 -10 -3 -8 -17 2 -13 -1 -30 -5
-38 -6 -9 -5 -12 1 -8 6 4 14 0 17 -9 3 -9 2 -12 -5 -8 -7 4 -10 -3 -8 -17 2
-13 -1 -30 -5 -38 -6 -9 -5 -12 1 -8 6 4 14 0 17 -9 3 -9 2 -12 -5 -8 -7 4
-10 -3 -8 -17 2 -13 -1 -30 -5 -38 -6 -9 -5 -12 1 -8 6 4 14 0 17 -9 3 -9 2
-12 -5 -8 -7 4 -10 -3 -8 -17 2 -13 -1 -30 -5 -38 -6 -9 -5 -12 1 -8 6 4 14 0
17 -9 3 -8 2 -12 -4 -9 -5 3 -8 -12 -7 -34 0 -22 5 -37 11 -34 5 3 6 1 2 -6
-14 -23 -17 -61 -4 -61 9 0 8 -3 -2 -10 -8 -5 -10 -10 -4 -10 7 0 14 -7 17
-14 4 -11 1 -13 -11 -9 -14 6 -15 4 -4 -9 9 -11 10 -18 2 -23 -5 -3 -10 -12
-10 -18 0 -7 4 -6 10 3 9 13 10 13 11 0 1 -8 1 -23 0 -32 -1 -10 4 -18 11 -18
9 0 9 -3 -2 -10 -8 -5 -10 -10 -4 -10 6 0 11 -6 11 -12 0 -7 4 -22 8 -33 5
-16 5 -17 -4 -5 -6 9 -11 10 -11 3 0 -6 7 -18 15 -27 17 -17 20 -30 4 -21 -13
8 12 -37 26 -47 6 -5 4 -8 -5 -8 -11 0 -12 -3 -3 -8 6 -4 14 -21 16 -37 2 -17
10 -29 16 -27 7 1 10 -2 6 -8 -3 -5 0 -10 7 -10 9 0 9 -3 -2 -10 -10 -6 -11
-10 -2 -10 6 0 12 -7 12 -15 0 -8 4 -15 10 -15 5 0 7 -7 4 -15 -4 -8 -1 -15 6
-15 6 0 8 -4 5 -10 -3 -5 0 -10 8 -10 10 0 13 -7 10 -18 -3 -12 6 -27 26 -43
28 -22 44 -48 21 -34 -16 10 -11 -1 7 -16 15 -12 16 -12 8 1 -4 8 2 5 14 -7
11 -12 21 -26 21 -32 0 -5 5 -11 10 -13 6 -2 1 -9 -9 -15 -17 -11 -19 -10 -16
9 4 20 4 20 -15 3 -13 -11 -20 -14 -20 -6 0 7 -5 9 -12 4 -17 -10 -59 -12 -53
-2 6 9 -15 6 -32 -4 -8 -5 -13 -4 -13 2 0 6 -5 11 -11 11 -5 0 -7 -5 -3 -11 4
-7 -1 -7 -16 1 -15 8 -20 8 -16 1 4 -6 2 -11 -3 -11 -6 0 -11 5 -11 11 0 8 -5
7 -16 -2 -12 -10 -17 -10 -23 -1 -8 13 -37 12 -60 -2 -11 -7 -13 -5 -8 6 5 14
1 15 -22 8 -17 -5 -42 -3 -64 5 -21 7 -40 9 -42 4 -3 -4 -12 -6 -20 -3 -8 4
-12 11 -9 16 4 6 -2 7 -16 3 -17 -5 -21 -4 -15 5 6 9 4 11 -5 5 -8 -5 -18 -1
-27 10 -9 13 -13 14 -13 5 0 -9 -4 -8 -13 5 -8 10 -19 15 -25 11 -11 -7 -17 6
-13 28 1 5 -6 3 -15 -5 -12 -9 -15 -9 -10 -2 4 8 2 13 -4 13 -6 0 -9 4 -6 9 3
5 -4 11 -15 14 -14 4 -20 11 -16 21 4 9 1 15 -6 13 -6 -1 -13 8 -15 21 -2 12
-8 22 -13 22 -5 0 -8 3 -8 8 4 21 -2 32 -13 26 -8 -5 -7 0 2 11 12 15 12 17 1
10 -11 -6 -13 -4 -8 8 4 10 2 17 -4 17 -7 0 -9 11 -7 25 3 14 1 25 -3 25 -5 0
-9 5 -9 11 0 5 6 7 13 3 10 -6 10 -4 0 7 -7 7 -13 19 -13 27 0 7 6 10 13 7 6
-4 4 0 -5 8 -18 14 -25 33 -10 23 5 -3 9 1 9 9 0 8 -4 12 -9 9 -11 -7 -10 3 2
27 6 11 7 19 3 18 -22 -4 -24 3 -7 22 10 11 14 20 9 19 -22 -5 -27 1 -15 15
10 12 10 15 0 15 -10 0 -10 3 0 15 7 8 8 15 3 15 -10 0 -10 61 1 78 4 7 2 12
-4 12 -8 0 -8 6 0 20 8 14 8 20 0 20 -6 0 -8 5 -3 13 12 19 12 37 1 37 -6 0
-5 6 2 15 7 9 8 15 2 15 -15 0 -8 30 9 41 11 7 10 9 -5 9 -15 0 -16 3 -6 15 7
9 10 18 6 22 -3 3 -6 0 -6 -7 0 -7 -3 -11 -6 -8 -3 4 -1 16 6 27 7 15 7 21 0
21 -8 0 -8 6 0 20 6 12 7 20 1 20 -14 0 -7 30 10 41 11 7 10 9 -5 9 -15 0 -16
3 -6 15 7 9 10 18 6 22 -3 3 -6 0 -6 -7 0 -7 -3 -11 -6 -8 -3 4 -1 16 6 27 7
15 7 21 0 21 -8 0 -8 6 0 20 8 14 8 20 0 20 -6 0 -8 5 -3 13 12 19 12 37 1 37
-6 0 -4 7 3 17 12 14 12 15 1 9 -11 -7 -12 -4 -3 13 9 16 9 21 -1 21 -9 0 -9
3 0 12 8 8 8 15 1 24 -7 9 -7 19 1 33 7 15 7 21 0 21 -8 0 -8 6 0 20 8 14 8
20 0 20 -6 0 -8 5 -3 13 12 19 12 37 1 37 -6 0 -5 6 2 15 7 9 8 15 2 15 -15 0
-8 30 9 41 11 7 10 9 -5 9 -15 0 -16 3 -6 15 7 9 10 18 6 22 -3 3 -6 0 -6 -7
0 -7 -3 -11 -6 -8 -3 4 -1 16 6 27 6 12 7 21 2 21 -11 0 -9 30 2 49 5 8 4 16
-4 21 -9 6 -9 9 -1 15 9 5 9 10 1 20 -8 9 -8 15 0 20 5 3 10 11 10 16 0 6 -4
8 -8 5 -10 -6 -9 45 2 63 5 8 4 16 -4 21 -9 6 -9 9 -1 15 9 5 9 10 1 20 -8 9
-8 15 0 20 5 3 10 11 10 16 0 6 -4 8 -8 5 -10 -6 -9 45 2 63 5 8 4 16 -4 21
-9 6 -9 9 -1 15 9 5 9 10 1 20 -8 9 -8 15 0 20 5 3 10 11 10 16 0 6 -4 8 -8 5
-10 -6 -9 45 2 63 5 8 4 16 -4 21 -9 6 -9 9 -1 15 9 5 9 10 1 20 -8 9 -8 15 0
20 5 3 10 11 10 16 0 6 -4 8 -8 5 -10 -6 -9 25 2 42 4 7 2 12 -4 12 -6 0 -8 5
-3 13 12 19 12 37 1 37 -6 0 -4 7 3 17 12 14 12 15 1 9 -11 -7 -12 -4 -3 13 9
16 9 21 0 21 -8 0 -9 4 0 13 7 10 7 17 0 24 -8 8 -8 17 0 32 8 15 8 21 1 21
-8 0 -8 6 0 20 8 14 8 20 0 20 -6 0 -8 5 -3 13 12 19 12 37 1 37 -6 0 -5 6 2
15 7 9 8 15 2 15 -15 0 -8 30 9 41 11 7 10 9 -5 9 -15 0 -16 3 -6 15 7 9 10
18 6 22 -3 3 -6 0 -6 -7 0 -7 -3 -11 -6 -8 -3 4 -1 16 6 27 7 15 7 21 0 21 -8
0 -8 6 0 20 8 14 8 20 0 20 -6 0 -8 5 -3 13 12 19 12 37 1 37 -6 0 -4 7 3 17
12 14 12 15 1 9 -11 -7 -12 -4 -3 13 9 16 9 21 -1 21 -9 0 -9 3 0 12 8 8 8 15
1 24 -7 9 -7 19 1 33 7 15 7 21 0 21 -8 0 -8 6 0 20 8 14 8 20 0 20 -6 0 -8 5
-3 13 12 19 12 37 1 37 -6 0 -5 6 2 15 7 9 8 15 2 15 -15 0 -8 30 9 41 11 7
10 9 -5 9 -15 0 -16 3 -6 15 7 9 10 18 6 22 -3 3 -6 0 -6 -7 0 -7 -3 -11 -6
-8 -3 4 -1 16 6 27 7 15 7 21 0 21 -8 0 -8 6 0 20 8 14 8 20 0 20 -6 0 -8 5
-3 13 12 19 12 37 1 37 -6 0 -4 7 3 17 12 14 12 15 1 9 -11 -7 -12 -4 -3 13 9
16 9 21 -1 21 -9 0 -9 3 0 12 8 8 8 15 1 24 -7 9 -7 19 1 33 7 15 7 21 0 21
-8 0 -8 6 0 20 8 14 8 20 0 20 -6 0 -8 5 -3 13 12 19 12 37 1 37 -6 0 -4 7 3
17 12 15 12 16 -1 8 -13 -8 -13 -7 -1 9 12 14 12 19 2 26 -10 5 -10 9 -2 15 9
5 9 10 1 20 -8 9 -8 15 0 20 5 3 10 11 10 16 0 6 -4 8 -8 5 -10 -6 -9 45 2 63
5 8 4 16 -4 21 -9 6 -9 9 -1 15 9 5 9 10 1 20 -8 9 -8 15 0 20 5 3 10 11 10
16 0 6 -4 8 -8 5 -10 -6 -9 45 2 63 5 8 4 16 -4 21 -9 6 -9 9 -1 15 9 5 9 10
1 20 -8 9 -8 15 0 20 5 3 10 11 10 16 0 6 -4 8 -8 5 -16 -10 -6 43 12 63 11
12 14 21 8 21 -7 0 -12 -4 -12 -10 0 -5 -4 -10 -10 -10 -5 0 -7 6 -4 14 7 17
44 29 41 12 -1 -6 8 -10 21 -10 12 1 22 -3 22 -9 0 -5 7 -4 15 3 11 9 15 9 15
1 0 -7 5 -9 10 -6 6 3 10 1 10 -6 0 -8 5 -7 17 2 9 8 14 9 10 3 -4 -7 0 -14 8
-17 9 -4 12 -1 9 7 -3 8 0 17 7 22 8 4 10 3 5 -4 -4 -7 -2 -12 4 -12 6 0 9 -4
6 -9 -7 -10 20 -9 30 2 10 10 26 9 20 -1 -3 -5 2 -9 10 -9 8 0 13 6 10 12 -3
8 4 10 21 7 18 -3 21 -7 11 -13 -7 -5 -8 -9 -2 -9 5 0 14 4 20 9 15 16 67 21
81 9 11 -9 13 -8 11 2 -2 7 3 15 11 18 8 2 11 0 8 -5 -3 -5 3 -9 13 -9 10 0
16 4 14 8 -3 4 -2 8 3 9 14 1 47 8 68 13 11 2 30 5 43 5 13 1 20 5 17 11 -4 6
5 10 20 10 18 0 24 4 19 13 -6 9 -3 8 9 -1 13 -12 18 -10 29 7 7 12 16 21 21
21 4 0 5 -6 1 -12 -6 -10 -5 -10 8 -1 8 7 18 10 22 6 4 -4 4 0 0 10 -5 13 -1
17 17 18 13 1 28 1 32 0 5 -1 11 8 14 20 4 16 8 17 14 7 7 -10 9 -9 9 5 0 21
23 22 44 2z m2735 -151 c4 3 8 -5 8 -17 1 -12 -3 -25 -10 -29 -9 -6 -9 -8 1
-8 7 0 10 -5 6 -11 -3 -6 0 -15 7 -20 9 -6 10 -9 2 -9 -6 0 -10 -9 -8 -20 2
-11 -1 -22 -6 -25 -5 -4 -6 -12 -2 -18 13 -20 12 -41 0 -49 -9 -6 -9 -8 0 -8
15 0 13 -101 -2 -112 -6 -5 -5 -8 3 -8 8 0 10 -8 6 -25 -4 -17 -2 -25 7 -25 8
0 5 -6 -7 -16 -10 -8 -13 -12 -5 -8 10 5 12 0 6 -25 -5 -22 -3 -31 7 -32 7 0
4 -4 -7 -9 -11 -5 -14 -9 -7 -9 6 -1 12 -10 12 -22 0 -13 -4 -18 -12 -13 -10
6 -10 4 0 -8 11 -14 7 -16 -32 -19 -24 -2 -42 -1 -40 2 2 4 -3 9 -11 12 -9 4
-12 1 -8 -9 3 -9 0 -13 -8 -10 -47 15 -70 16 -63 4 6 -10 3 -9 -9 1 -15 12
-17 11 -17 -5 0 -15 -2 -16 -9 -5 -11 17 -73 21 -83 6 -5 -6 -8 -6 -8 3 0 6
-5 12 -11 12 -5 0 -7 -5 -3 -11 5 -8 1 -8 -14 0 -25 13 -35 14 -28 3 3 -5 -1
-9 -9 -9 -8 0 -12 4 -9 9 3 4 -3 8 -13 8 -15 0 -16 2 -3 10 10 6 11 10 3 10
-7 0 -13 7 -13 16 0 9 5 12 13 8 6 -4 3 3 -8 16 -11 13 -14 20 -7 16 6 -4 12
-2 12 3 0 6 -4 11 -10 11 -5 0 -6 7 -3 17 4 11 3 14 -5 9 -7 -4 -12 -2 -12 3
0 6 6 11 13 12 9 0 9 2 -1 6 -10 4 -10 8 -1 20 7 8 8 13 3 12 -20 -4 -26 2
-15 15 8 9 8 16 2 20 -6 4 -7 14 -4 22 3 9 0 20 -8 25 -11 7 -11 9 -1 9 7 0
10 5 7 10 -4 6 -10 8 -14 5 -5 -2 -6 7 -3 20 2 14 -1 31 -7 38 -6 8 -7 17 -3
21 10 11 9 30 -3 38 -6 5 -5 8 4 8 11 0 11 3 1 15 -10 12 -10 15 1 15 8 0 6 6
-7 16 -10 8 -14 13 -8 10 7 -3 15 1 18 10 3 8 2 13 -3 10 -5 -3 -11 10 -13 29
-3 29 -2 32 11 22 11 -9 13 -9 8 0 -4 6 -3 14 3 18 5 3 10 2 10 -2 0 -13 40
-11 41 2 0 5 4 1 9 -10 5 -11 9 -14 9 -7 1 7 6 10 12 6 6 -3 15 -1 19 6 5 8 9
7 13 -5 5 -10 3 -14 -5 -9 -7 4 -8 3 -4 -4 4 -6 13 -9 21 -6 8 4 13 9 11 13
-3 4 4 7 14 7 10 0 16 -5 13 -12 -2 -7 6 -10 24 -8 15 1 34 2 41 3 8 1 10 6 6
14 -4 6 3 3 15 -7 21 -19 21 -19 15 -1 -6 14 -4 16 7 9 20 -12 39 -14 39 -3 0
6 5 7 10 4 6 -3 10 -1 10 6 0 8 4 8 15 -1 10 -8 15 -9 15 -2 0 6 6 9 14 6 8
-3 20 1 27 9 12 13 14 13 17 -4 2 -11 7 -17 11 -15z m-214 -3 c-9 -8 -36 -10
-30 -2 2 4 11 8 20 8 8 0 13 -3 10 -6z m-3858 -167 c-3 -3 -12 -4 -19 -1 -8 3
-5 6 6 6 11 1 17 -2 13 -5z m5148 -375 c11 -2 26 0 33 5 12 7 12 4 1 -15 -11
-21 -10 -22 2 -12 9 7 20 8 29 3 8 -5 17 -7 20 -6 3 2 14 -6 25 -17 12 -11 14
-17 5 -13 -9 5 -8 2 3 -7 9 -8 17 -19 17 -26 0 -6 5 -11 11 -11 5 0 8 -4 5 -9
-3 -5 1 -14 9 -21 11 -9 12 -16 5 -25 -7 -8 -4 -17 10 -30 16 -14 17 -21 9
-38 -10 -17 -9 -19 7 -13 16 6 16 5 -2 -15 -10 -12 -13 -19 -6 -15 13 8 16 -2
12 -43 -1 -14 2 -21 9 -17 10 6 6 -38 -5 -56 -3 -4 0 -8 7 -8 8 0 8 -4 -1 -15
-10 -12 -10 -15 0 -15 10 0 10 -3 1 -14 -10 -11 -8 -17 6 -25 17 -10 17 -10
-2 -11 -15 0 -17 -2 -6 -9 10 -7 11 -10 1 -16 -10 -6 -9 -11 5 -22 17 -12 18
-13 1 -13 -9 0 -14 -5 -11 -10 4 -6 12 -7 18 -3 7 3 3 -4 -8 -17 -12 -14 -14
-20 -5 -15 13 8 13 7 1 -8 -11 -14 -11 -17 0 -17 11 0 11 -2 -1 -10 -13 -9
-13 -10 0 -10 9 0 11 -3 5 -8 -13 -9 -16 -45 -4 -53 5 -3 7 -13 3 -22 -3 -9
-10 -14 -15 -11 -5 3 -4 -7 1 -22 10 -25 9 -26 -6 -13 -16 13 -16 12 -6 -7 8
-16 8 -24 -1 -34 -9 -10 -9 -11 0 -6 9 5 11 2 7 -8 -3 -9 -11 -13 -18 -9 -8 5
-8 3 0 -8 12 -16 7 -99 -7 -99 -5 0 -9 -5 -9 -11 0 -5 6 -7 13 -4 6 4 3 -1 -7
-9 -15 -12 -16 -16 -5 -16 9 0 10 -3 3 -8 -6 -4 -10 -15 -8 -24 1 -10 -3 -18
-9 -18 -7 0 -5 -5 3 -10 12 -8 12 -10 1 -10 -10 0 -11 -3 -2 -14 10 -11 7 -18
-11 -30 -19 -14 -21 -18 -8 -26 11 -7 11 -10 2 -10 -7 0 -10 -4 -7 -10 3 -5 1
-10 -5 -10 -6 0 -8 -4 -5 -10 3 -5 0 -10 -7 -10 -9 0 -9 -3 2 -10 9 -6 11 -10
3 -10 -7 0 -10 -7 -7 -15 4 -8 1 -15 -6 -15 -6 0 -8 -4 -5 -10 3 -5 0 -10 -7
-10 -9 0 -9 -3 2 -10 10 -6 11 -10 3 -10 -7 0 -13 -7 -13 -15 0 -8 -6 -15 -12
-15 -9 0 -8 -4 2 -10 9 -6 10 -10 3 -10 -6 0 -14 -13 -18 -30 -4 -16 -11 -30
-17 -30 -6 0 -5 -7 3 -17 7 -10 9 -15 5 -11 -11 10 -49 -49 -41 -63 4 -5 -1
-12 -9 -15 -9 -3 -16 -14 -16 -24 0 -11 -5 -22 -10 -25 -6 -4 -7 -11 -4 -17 4
-6 2 -8 -3 -5 -6 4 -16 0 -23 -8 -11 -13 -10 -14 6 -9 14 5 11 0 -9 -19 -16
-15 -25 -32 -21 -39 4 -6 3 -8 -3 -5 -6 4 -17 -1 -24 -10 -12 -14 -12 -15 -1
-9 11 7 12 4 3 -13 -7 -11 -14 -21 -17 -21 -3 0 -2 6 2 13 4 6 -2 3 -13 -8
-11 -11 -20 -22 -18 -25 1 -3 -15 -21 -34 -40 -20 -20 -29 -26 -21 -15 8 12 3
9 -12 -6 -14 -15 -29 -25 -32 -22 -3 4 -6 -1 -6 -10 0 -10 -3 -16 -7 -16 -21
3 -33 -2 -28 -12 4 -6 0 -9 -11 -7 -12 2 -18 -2 -16 -10 1 -8 -2 -10 -8 -7 -6
4 -21 -1 -32 -12 -12 -10 -18 -12 -14 -5 4 7 1 12 -9 12 -9 0 -14 -4 -11 -8 2
-4 -4 -13 -14 -20 -13 -8 -21 -8 -25 -1 -5 6 -12 6 -23 -3 -12 -10 -14 -10 -8
-1 5 9 2 11 -8 7 -9 -3 -13 -11 -9 -18 4 -6 0 -6 -9 2 -11 9 -18 9 -23 3 -4
-7 -12 -7 -25 1 -14 9 -16 14 -7 20 9 6 9 8 -1 8 -8 0 -10 5 -5 13 12 19 12
36 1 43 -6 4 -5 10 3 15 10 6 11 9 2 9 -7 0 -13 5 -13 11 0 5 4 8 8 5 10 -6 9
25 -2 42 -4 7 -2 12 6 13 10 0 10 2 -1 6 -11 5 -11 7 0 14 12 7 12 9 0 9 -10
0 -11 3 -2 14 9 11 9 16 0 21 -8 6 -7 10 2 16 10 6 11 9 2 9 -7 0 -13 5 -13
11 0 5 4 8 8 5 4 -2 8 4 8 14 0 10 -4 16 -8 14 -4 -3 -8 0 -8 5 0 6 5 11 11
11 8 0 8 5 -1 15 -10 12 -10 15 1 16 10 0 11 2 2 6 -7 2 -13 9 -13 14 0 6 3 8
8 6 4 -3 7 8 7 23 1 16 -3 26 -7 24 -4 -3 -8 -1 -8 5 0 5 5 13 10 16 8 5 7 11
-1 21 -9 11 -8 14 2 14 12 0 12 2 0 9 -9 6 -10 10 -2 16 9 5 9 10 0 21 -8 10
-8 14 0 14 13 0 10 22 -4 33 -6 4 -5 10 4 16 9 6 10 11 2 15 -6 4 -9 12 -6 17
11 17 14 50 4 44 -5 -4 -9 -2 -9 4 0 5 5 13 10 16 8 5 7 11 -1 21 -9 11 -8 14
2 14 12 0 12 2 0 9 -9 6 -10 10 -2 16 9 5 9 10 0 21 -8 10 -8 14 0 14 13 0 10
22 -4 33 -6 4 -5 10 4 16 9 6 10 10 2 16 -9 5 -9 10 0 21 9 11 9 14 -1 14 -9
0 -9 4 1 17 10 11 10 14 2 9 -16 -9 -16 -1 -3 24 7 13 7 21 -1 26 -8 4 -7 9 2
15 11 7 11 9 -1 9 -13 0 -13 1 0 10 12 8 12 10 1 10 -10 0 -11 3 -2 14 9 11 9
16 0 21 -8 6 -7 10 2 16 10 6 11 9 2 9 -7 0 -13 5 -13 11 0 5 4 8 8 5 10 -6 9
25 -2 42 -4 7 -2 12 6 13 10 0 10 2 -1 6 -11 5 -11 7 0 14 12 7 12 9 0 9 -10
0 -11 3 -2 14 9 11 9 16 0 21 -8 6 -7 10 2 16 10 6 11 9 2 9 -7 0 -13 5 -13
11 0 5 4 8 8 5 10 -6 9 25 -2 42 -4 7 -2 12 6 13 10 0 10 2 -1 6 -11 5 -11 7
0 14 12 7 12 9 0 9 -10 0 -11 3 -2 14 9 11 9 16 0 21 -8 6 -7 10 2 16 10 6 11
9 2 9 -7 0 -13 5 -13 11 0 5 4 8 8 5 10 -6 9 25 -2 42 -4 7 -2 12 6 13 10 0
10 2 -1 6 -11 5 -11 7 0 14 12 7 12 9 0 9 -10 0 -11 3 -2 14 9 11 9 16 0 21
-8 6 -7 10 2 16 10 6 11 9 2 9 -7 0 -13 5 -13 11 0 5 4 8 8 5 5 -3 8 4 7 15
-1 11 -8 25 -16 30 -11 7 -10 9 6 10 12 0 15 3 7 6 -10 4 -9 9 5 20 11 9 12
12 3 8 -8 -4 -6 1 5 10 11 9 18 22 17 28 -2 7 0 8 4 4 4 -4 14 3 22 15 9 16
12 17 7 4 -5 -16 -3 -17 10 -6 8 7 12 16 9 21 -5 8 9 13 28 10 4 0 4 7 1 16
-5 13 -1 15 19 11 15 -3 25 0 24 6 0 6 3 12 8 13 5 1 13 7 17 15 7 11 9 10 9
-1 0 -10 5 -8 18 6 9 11 27 19 40 18 16 -1 21 3 18 12 -4 11 -1 11 15 2 11 -6
23 -8 27 -5 3 3 -1 6 -9 7 -8 0 -5 4 6 8 11 5 25 4 33 -1 8 -7 12 -7 12 1 0 7
5 9 10 6 6 -3 10 0 10 7 0 8 3 9 8 3 4 -5 15 -11 25 -11 13 -1 15 1 8 10 -8
10 1 12 39 10 27 -2 52 1 56 7 4 6 10 7 17 0 7 -5 21 -11 32 -12z m-5148 -585
c-3 -3 -12 -4 -19 -1 -8 3 -5 6 6 6 11 1 17 -2 13 -5z m0 -960 c-3 -3 -12 -4
-19 -1 -8 3 -5 6 6 6 11 1 17 -2 13 -5z m0 -960 c-3 -3 -12 -4 -19 -1 -8 3 -5
6 6 6 11 1 17 -2 13 -5z"/>
<path d="M3079 7603 c-13 -16 -12 -17 4 -4 9 7 17 15 17 17 0 8 -8 3 -21 -13z"/>
<path d="M3627 6813 c3 -7 9 -10 14 -7 14 8 11 21 -5 21 -8 0 -12 -6 -9 -14z"/>
<path d="M6050 4883 c0 -6 8 -17 18 -24 16 -13 16 -13 2 6 -8 11 -16 22 -17
24 -2 2 -3 0 -3 -6z"/>
<path d="M4070 6426 c0 -2 7 -7 16 -10 8 -3 12 -2 9 4 -6 10 -25 14 -25 6z"/>
<path d="M7865 5730 c-3 -5 -5 -10 -3 -11 33 -8 38 -7 27 7 -14 17 -16 17 -24
4z"/>
<path d="M8040 4669 c0 -5 5 -7 10 -4 6 3 10 8 10 11 0 2 -4 4 -10 4 -5 0 -10
-5 -10 -11z"/>
<path d="M4856 8657 c3 -10 9 -15 12 -12 3 3 0 11 -7 18 -10 9 -11 8 -5 -6z"/>
<path d="M5986 8358 c3 -5 10 -6 15 -3 13 9 11 12 -6 12 -8 0 -12 -4 -9 -9z"/>
<path d="M2736 6387 c3 -10 9 -15 12 -12 3 3 0 11 -7 18 -10 9 -11 8 -5 -6z"/>
<path d="M2740 6340 c6 -11 13 -20 16 -20 2 0 0 9 -6 20 -6 11 -13 20 -16 20
-2 0 0 -9 6 -20z"/>
<path d="M2736 5907 c3 -10 9 -15 12 -12 3 3 0 11 -7 18 -10 9 -11 8 -5 -6z"/>
<path d="M2740 5860 c6 -11 13 -20 16 -20 2 0 0 9 -6 20 -6 11 -13 20 -16 20
-2 0 0 -9 6 -20z"/>
<path d="M2736 5427 c3 -10 9 -15 12 -12 3 3 0 11 -7 18 -10 9 -11 8 -5 -6z"/>
<path d="M2740 5380 c6 -11 13 -20 16 -20 2 0 0 9 -6 20 -6 11 -13 20 -16 20
-2 0 0 -9 6 -20z"/>
<path d="M2736 4947 c3 -10 9 -15 12 -12 3 3 0 11 -7 18 -10 9 -11 8 -5 -6z"/>
<path d="M2740 4900 c6 -11 13 -20 16 -20 2 0 0 9 -6 20 -6 11 -13 20 -16 20
-2 0 0 -9 6 -20z"/>
<path d="M2738 4773 c7 -3 16 -2 19 1 4 3 -2 6 -13 5 -11 0 -14 -3 -6 -6z"/>
<path d="M2736 4467 c3 -10 9 -15 12 -12 3 3 0 11 -7 18 -10 9 -11 8 -5 -6z"/>
<path d="M2740 4420 c6 -11 13 -20 16 -20 2 0 0 9 -6 20 -6 11 -13 20 -16 20
-2 0 0 -9 6 -20z"/>
<path d="M2736 3987 c3 -10 9 -15 12 -12 3 3 0 11 -7 18 -10 9 -11 8 -5 -6z"/>
<path d="M2740 3940 c6 -11 13 -20 16 -20 2 0 0 9 -6 20 -6 11 -13 20 -16 20
-2 0 0 -9 6 -20z"/>
<path d="M2738 3813 c7 -3 16 -2 19 1 4 3 -2 6 -13 5 -11 0 -14 -3 -6 -6z"/>
<path d="M2736 3507 c3 -10 9 -15 12 -12 3 3 0 11 -7 18 -10 9 -11 8 -5 -6z"/>
<path d="M2740 3460 c6 -11 13 -20 16 -20 2 0 0 9 -6 20 -6 11 -13 20 -16 20
-2 0 0 -9 6 -20z"/>
<path d="M2736 3027 c3 -10 9 -15 12 -12 3 3 0 11 -7 18 -10 9 -11 8 -5 -6z"/>
<path d="M2740 2980 c6 -11 13 -20 16 -20 2 0 0 9 -6 20 -6 11 -13 20 -16 20
-2 0 0 -9 6 -20z"/>
</g>
</svg>
